<svg width="16" height="16" viewBox="0 0 16 16" fill="none" xmlns="http://www.w3.org/2000/svg">
<g id="Robot-r">
<g id="Vector">
<path fill-rule="evenodd" clip-rule="evenodd" d="M1.5 5C1.5 5 1.5 4.17157 2.08579 3.58579C2.08579 3.58579 2.67157 3 3.5 3H12.5C12.5 3 13.3284 3 13.9142 3.58579C13.9142 3.58579 14.5 4.17157 14.5 5V12C14.5 12 14.5 12.8284 13.9142 13.4142C13.9142 13.4142 13.3284 14 12.5 14H3.5C3.5 14 2.67157 14 2.08579 13.4142C2.08579 13.4142 1.5 12.8284 1.5 12V5ZM2.5 5L2.5 12C2.5 12 2.5 12.4142 2.79289 12.7071C2.79289 12.7071 3.08579 13 3.5 13H12.5C12.5 13 12.9142 13 13.2071 12.7071C13.2071 12.7071 13.5 12.4142 13.5 12V5C13.5 5 13.5 4.58579 13.2071 4.29289C13.2071 4.29289 12.9142 4 12.5 4H3.5C3.5 4 3.08579 4 2.79289 4.29289C2.79289 4.29289 2.5 4.58579 2.5 5Z" fill="white"/>
<path fill-rule="evenodd" clip-rule="evenodd" d="M4 10.25C4 10.25 4 9.52513 4.51256 9.01256C4.51256 9.01256 5.02513 8.5 5.75 8.5H10.25C10.25 8.5 10.9749 8.5 11.4874 9.01256C11.4874 9.01256 12 9.52513 12 10.25C12 10.25 12 10.9749 11.4874 11.4874C11.4874 11.4874 10.9749 12 10.25 12H5.75C5.75 12 5.02513 12 4.51256 11.4874C4.51256 11.4874 4 10.9749 4 10.25ZM5 10.25C5 10.25 5 10.5607 5.21967 10.7803C5.21967 10.7803 5.43934 11 5.75 11H10.25C10.25 11 10.5607 11 10.7803 10.7803C10.7803 10.7803 11 10.5607 11 10.25C11 10.25 11 9.93934 10.7803 9.71967C10.7803 9.71967 10.5607 9.5 10.25 9.5H5.75C5.75 9.5 5.43934 9.5 5.21967 9.71967C5.21967 9.71967 5 9.93934 5 10.25Z" fill="white"/>
<path d="M8.75 9V11.5C8.75 11.7761 8.97386 12 9.25 12C9.52614 12 9.75 11.7761 9.75 11.5V9C9.75 8.72386 9.52614 8.5 9.25 8.5C8.97386 8.5 8.75 8.72386 8.75 9Z" fill="white"/>
<path d="M6.25 9V11.5C6.25 11.7761 6.47386 12 6.75 12C7.02614 12 7.25 11.7761 7.25 11.5V9C7.25 8.72386 7.02614 8.5 6.75 8.5C6.47386 8.5 6.25 8.72386 6.25 9Z" fill="white"/>
<path d="M8.5 3.5V1C8.5 0.723858 8.27614 0.5 8 0.5C7.72386 0.5 7.5 0.723858 7.5 1V3.5C7.5 3.77614 7.72386 4 8 4C8.27614 4 8.5 3.77614 8.5 3.5Z" fill="white"/>
<path d="M6 6.75C6 7.16418 5.66422 7.5 5.25 7.5C4.83578 7.5 4.5 7.16418 4.5 6.75C4.5 6.33582 4.83578 6 5.25 6C5.66422 6 6 6.33582 6 6.75Z" fill="white"/>
<path d="M11.5 6.75C11.5 7.16418 11.1642 7.5 10.75 7.5C10.3358 7.5 10 7.16418 10 6.75C10 6.33582 10.3358 6 10.75 6C11.1642 6 11.5 6.33582 11.5 6.75Z" fill="white"/>
</g>
</g>
</svg>
