<svg width="24" height="24" viewBox="0 0 24 24" fill="none" xmlns="http://www.w3.org/2000/svg">
<g id="Robot-r">
<g id="Vector">
<path fill-rule="evenodd" clip-rule="evenodd" d="M2.25 7.5C2.25 7.5 2.25 6.25736 3.12868 5.37868C3.12868 5.37868 4.00736 4.5 5.25 4.5H18.75C18.75 4.5 19.9926 4.5 20.8713 5.37868C20.8713 5.37868 21.75 6.25736 21.75 7.5V18C21.75 18 21.75 19.2426 20.8713 20.1213C20.8713 20.1213 19.9926 21 18.75 21H5.25C5.25 21 4.00736 21 3.12868 20.1213C3.12868 20.1213 2.25 19.2426 2.25 18V7.5ZM3.75 7.5L3.75 18C3.75 18 3.75 18.6213 4.18934 19.0607C4.18934 19.0607 4.62868 19.5 5.25 19.5H18.75C18.75 19.5 19.3713 19.5 19.8107 19.0607C19.8107 19.0607 20.25 18.6213 20.25 18V7.5C20.25 7.5 20.25 6.87868 19.8107 6.43934C19.8107 6.43934 19.3713 6 18.75 6H5.25C5.25 6 4.62868 6 4.18934 6.43934C4.18934 6.43934 3.75 6.87868 3.75 7.5Z" fill="#1C1C1C"/>
<path fill-rule="evenodd" clip-rule="evenodd" d="M6 15.375C6 15.375 6 14.2877 6.76884 13.5188C6.76884 13.5188 7.53769 12.75 8.625 12.75H15.375C15.375 12.75 16.4623 12.75 17.2312 13.5188C17.2312 13.5188 18 14.2877 18 15.375C18 15.375 18 16.4623 17.2312 17.2312C17.2312 17.2312 16.4623 18 15.375 18H8.625C8.625 18 7.53769 18 6.76884 17.2312C6.76884 17.2312 6 16.4623 6 15.375ZM7.5 15.375C7.5 15.375 7.5 15.841 7.8295 16.1705C7.8295 16.1705 8.15901 16.5 8.625 16.5H15.375C15.375 16.5 15.841 16.5 16.1705 16.1705C16.1705 16.1705 16.5 15.841 16.5 15.375C16.5 15.375 16.5 14.909 16.1705 14.5795C16.1705 14.5795 15.841 14.25 15.375 14.25H8.625C8.625 14.25 8.15901 14.25 7.8295 14.5795C7.8295 14.5795 7.5 14.909 7.5 15.375Z" fill="#1C1C1C"/>
<path d="M13.125 13.5V17.25C13.125 17.6642 13.4608 18 13.875 18C14.2892 18 14.625 17.6642 14.625 17.25V13.5C14.625 13.0858 14.2892 12.75 13.875 12.75C13.4608 12.75 13.125 13.0858 13.125 13.5Z" fill="#1C1C1C"/>
<path d="M9.375 13.5V17.25C9.375 17.6642 9.71079 18 10.125 18C10.5392 18 10.875 17.6642 10.875 17.25V13.5C10.875 13.0858 10.5392 12.75 10.125 12.75C9.71079 12.75 9.375 13.0858 9.375 13.5Z" fill="#1C1C1C"/>
<path d="M12.75 5.25V1.5C12.75 1.08579 12.4142 0.75 12 0.75C11.5858 0.75 11.25 1.08579 11.25 1.5V5.25C11.25 5.66421 11.5858 6 12 6C12.4142 6 12.75 5.66421 12.75 5.25Z" fill="#1C1C1C"/>
<path d="M9 10.125C9 10.7463 8.49632 11.25 7.875 11.25C7.25368 11.25 6.75 10.7463 6.75 10.125C6.75 9.50372 7.25368 9 7.875 9C8.49632 9 9 9.50372 9 10.125Z" fill="#1C1C1C"/>
<path d="M17.25 10.125C17.25 10.7463 16.7463 11.25 16.125 11.25C15.5037 11.25 15 10.7463 15 10.125C15 9.50372 15.5037 9 16.125 9C16.7463 9 17.25 9.50372 17.25 10.125Z" fill="#1C1C1C"/>
</g>
</g>
</svg>
