<svg width="24" height="24" viewBox="0 0 24 24" fill="none" xmlns="http://www.w3.org/2000/svg">
<g id="icon">
<path id="Vector" d="M6.85714 2C4.72768 2 3 3.72768 3 5.85714V18.7143C3 20.8438 4.72768 22.5714 6.85714 22.5714H18.4286H19.7143C20.4254 22.5714 21 21.9969 21 21.2857C21 20.5746 20.4254 20 19.7143 20V17.4286C20.4254 17.4286 21 16.854 21 16.1429V3.28571C21 2.57455 20.4254 2 19.7143 2H18.4286H6.85714ZM6.85714 17.4286H17.1429V20H6.85714C6.14598 20 5.57143 19.4254 5.57143 18.7143C5.57143 18.0031 6.14598 17.4286 6.85714 17.4286ZM8.14286 7.78571C8.14286 7.43214 8.43214 7.14286 8.78571 7.14286H16.5C16.8536 7.14286 17.1429 7.43214 17.1429 7.78571C17.1429 8.13929 16.8536 8.42857 16.5 8.42857H8.78571C8.43214 8.42857 8.14286 8.13929 8.14286 7.78571ZM8.78571 9.71429H16.5C16.8536 9.71429 17.1429 10.0036 17.1429 10.3571C17.1429 10.7107 16.8536 11 16.5 11H8.78571C8.43214 11 8.14286 10.7107 8.14286 10.3571C8.14286 10.0036 8.43214 9.71429 8.78571 9.71429Z" fill="#1C1C1C"/>
</g>
</svg>
