<svg width="24" height="24" viewBox="0 0 24 24" fill="none" xmlns="http://www.w3.org/2000/svg">
<path d="M8.39316 11.8328C8.25362 11.6994 8.06802 11.625 7.875 11.625C7.87484 11.625 7.85799 11.6252 7.85799 11.6252C7.65913 11.6297 7.4702 11.713 7.33278 11.8568C7.19942 11.9964 7.125 12.182 7.125 12.375L7.12519 12.392C7.1297 12.5909 7.21303 12.7798 7.35684 12.9172L10.1037 15.5422C10.3934 15.8191 10.8496 15.8193 11.1396 15.5427L16.6425 10.2928C16.7864 10.1555 16.8701 9.96651 16.8748 9.76765C16.8751 9.75564 16.8751 9.74362 16.8748 9.73161C16.8702 9.54522 16.7964 9.36721 16.6677 9.2323C16.5261 9.08394 16.33 9 16.125 9L16.1038 9.0003C15.9184 9.00553 15.7415 9.0793 15.6073 9.20734L10.6223 13.963L8.39316 11.8328Z" fill="#1C1C1C"/>
<path fill-rule="evenodd" clip-rule="evenodd" d="M12 2.25C12 2.25 13.9831 2.25 15.7954 3.01651C15.7954 3.01651 17.5452 3.75663 18.8943 5.10571C18.8943 5.10571 20.2434 6.45478 20.9835 8.20463C20.9835 8.20463 21.75 10.0169 21.75 12C21.75 12 21.75 13.9831 20.9835 15.7954C20.9835 15.7954 20.2434 17.5452 18.8943 18.8943C18.8943 18.8943 17.5452 20.2434 15.7954 20.9835C15.7954 20.9835 13.9831 21.75 12 21.75C12 21.75 10.0169 21.75 8.20463 20.9835C8.20463 20.9835 6.45478 20.2434 5.10571 18.8943C5.10571 18.8943 3.75663 17.5452 3.01651 15.7954C3.01651 15.7954 2.25 13.9831 2.25 12C2.25 12 2.25 10.0169 3.01651 8.20463C3.01651 8.20463 3.75663 6.45478 5.10571 5.10571C5.10571 5.10571 6.45478 3.75663 8.20463 3.01651C8.20463 3.01651 10.0169 2.25 12 2.25ZM12 3.75C12 3.75 10.321 3.75 8.78896 4.39802C8.78896 4.39802 7.30857 5.02417 6.16637 6.16637C6.16637 6.16637 5.02417 7.30857 4.39802 8.78896C4.39802 8.78896 3.75 10.321 3.75 12C3.75 12 3.75 13.679 4.39802 15.211C4.39802 15.211 5.02417 16.6914 6.16637 17.8336C6.16637 17.8336 7.30857 18.9758 8.78896 19.602C8.78896 19.602 10.321 20.25 12 20.25C12 20.25 13.679 20.25 15.211 19.602C15.211 19.602 16.6914 18.9758 17.8336 17.8336C17.8336 17.8336 18.9758 16.6914 19.602 15.211C19.602 15.211 20.25 13.6789 20.25 12C20.25 12 20.25 10.3211 19.602 8.78896C19.602 8.78896 18.9758 7.30857 17.8336 6.16637C17.8336 6.16637 16.6914 5.02417 15.211 4.39802C15.211 4.39802 13.679 3.75 12 3.75Z" fill="#1C1C1C"/>
</svg>
