<svg width="18" height="18" viewBox="0 0 18 18" fill="none" xmlns="http://www.w3.org/2000/svg">
<path fill-rule="evenodd" clip-rule="evenodd" d="M3.53261 16.5255L5.76744 14.6507L5.84048 14.625H15.1875C15.1875 14.625 15.6535 14.625 15.983 14.2955C15.983 14.2955 16.3125 13.966 16.3125 13.5V4.5C16.3125 4.5 16.3125 4.03401 15.983 3.70451C15.983 3.70451 15.6535 3.375 15.1875 3.375H2.8125C2.8125 3.375 2.34651 3.375 2.01701 3.7045C2.01701 3.7045 1.6875 4.03401 1.6875 4.5L1.68752 15.6701C1.68752 15.6701 1.6901 15.9957 1.86623 16.2696C1.86623 16.2696 2.04237 16.5436 2.33759 16.681C2.33759 16.681 2.63281 16.8185 2.95581 16.777C2.95581 16.777 3.27881 16.7355 3.53261 16.5255ZM5.55807 13.5318C5.61798 13.5108 5.68103 13.5 5.74453 13.5H15.1875V4.5H2.8125L2.81247 15.6612L5.12286 13.723C5.17473 13.6794 5.23403 13.6457 5.29791 13.6232L5.55807 13.5318Z" fill="#1C1C1C"/>
<path d="M6.75 8.4375H11.25C11.5607 8.4375 11.8125 8.18566 11.8125 7.875C11.8125 7.56434 11.5607 7.3125 11.25 7.3125H6.75C6.43934 7.3125 6.1875 7.56434 6.1875 7.875C6.1875 8.18566 6.43934 8.4375 6.75 8.4375Z" fill="#1C1C1C"/>
<path d="M6.75 10.6875H11.25C11.5607 10.6875 11.8125 10.4357 11.8125 10.125C11.8125 9.81434 11.5607 9.5625 11.25 9.5625H6.75C6.43934 9.5625 6.1875 9.81434 6.1875 10.125C6.1875 10.4357 6.43934 10.6875 6.75 10.6875Z" fill="#1C1C1C"/>
</svg>
