<svg width="24" height="24" viewBox="0 0 24 24" fill="none" xmlns="http://www.w3.org/2000/svg">
<g id="UsersThree-d">
<path id="Vector" d="M15.75 13.125C15.75 15.1961 14.0711 16.875 12 16.875C9.92889 16.875 8.25 15.1961 8.25 13.125C8.25 11.0539 9.92889 9.375 12 9.375C14.0711 9.375 15.75 11.0539 15.75 13.125Z" fill="#1C1C1C" fill-opacity="0.1"/>
<path id="Vector_2" d="M8.625 7.875C8.625 9.53192 7.28192 10.875 5.625 10.875C3.96808 10.875 2.625 9.53192 2.625 7.875C2.625 6.21808 3.96808 4.875 5.625 4.875C7.28192 4.875 8.625 6.21808 8.625 7.875Z" fill="#1C1C1C" fill-opacity="0.1"/>
<path id="Vector_3" d="M21.375 7.875C21.375 9.53192 20.0319 10.875 18.375 10.875C16.7181 10.875 15.375 9.53192 15.375 7.875C15.375 6.21808 16.7181 4.875 18.375 4.875C20.0319 4.875 21.375 6.21808 21.375 7.875Z" fill="#1C1C1C" fill-opacity="0.1"/>
<path id="Vector_4" fill-rule="evenodd" clip-rule="evenodd" d="M12 8.625C12 8.625 13.864 8.625 15.182 9.94302C15.182 9.94302 16.5 11.261 16.5 13.125C16.5 13.125 16.5 14.989 15.182 16.307C15.182 16.307 13.864 17.625 12 17.625C12 17.625 10.136 17.625 8.81802 16.307C8.81802 16.307 7.5 14.989 7.5 13.125C7.5 13.125 7.5 11.261 8.81802 9.94302C8.81802 9.94302 10.136 8.625 12 8.625ZM12 10.125C12 10.125 10.7574 10.125 9.87868 11.0037C9.87868 11.0037 9 11.8824 9 13.125C9 13.125 9 14.3676 9.87868 15.2463C9.87868 15.2463 10.7574 16.125 12 16.125C12 16.125 13.2426 16.125 14.1213 15.2463C14.1213 15.2463 15 14.3676 15 13.125C15 13.125 15 11.8824 14.1213 11.0037C14.1213 11.0037 13.2426 10.125 12 10.125Z" fill="#1C1C1C"/>
<path id="Vector_5" d="M22.274 13.5737L22.2743 13.574C22.3934 13.7333 22.5709 13.8388 22.7677 13.8673C22.8033 13.8724 22.8391 13.875 22.875 13.875L22.8764 13.875C23.0377 13.8747 23.1947 13.8224 23.324 13.7258C23.5135 13.5842 23.625 13.3615 23.625 13.125L23.625 13.1164C23.6232 12.9575 23.5709 12.8033 23.4758 12.676L23.4751 12.6752C22.5737 11.4694 21.227 10.796 21.227 10.796C19.8799 10.1225 18.3738 10.125 18.3738 10.125L18.375 10.125C18.7892 10.125 19.125 10.4608 19.125 10.875C19.125 11.2886 18.7903 11.6241 18.3767 11.625L22.274 13.5737Z" fill="#1C1C1C"/>
<path id="Vector_6" d="M3.44384 12.1377C4.47305 11.6231 5.62375 11.625 5.62375 11.625L5.6248 11.625H5.625C5.6366 11.625 5.64819 11.6247 5.65977 11.6242C5.84603 11.6156 6.02238 11.5378 6.15444 11.4062C6.29533 11.2658 6.37467 11.0752 6.375 10.8763L6.375 10.8752V10.875C6.375 10.8296 6.37088 10.7844 6.36271 10.7398C6.29751 10.3841 5.98783 10.1256 5.62625 10.125L5.625 10.125C4.11958 10.1228 2.77302 10.796 2.77302 10.796C1.42638 11.4694 0.524888 12.6752 0.524888 12.6752L0.524345 12.6759C0.427356 12.8057 0.375 12.9632 0.375 13.125L0.375041 13.1329C0.37539 13.1661 0.377954 13.1994 0.382716 13.2323C0.411176 13.4292 0.516675 13.6067 0.676004 13.7258C0.805645 13.8227 0.963152 13.875 1.125 13.875C1.13503 13.875 1.14505 13.8748 1.15507 13.8744C1.38084 13.8653 1.59049 13.755 1.72575 13.574C2.41463 12.6523 3.44384 12.1377 3.44384 12.1377Z" fill="#1C1C1C"/>
<path id="Vector_7" d="M14.7861 18.4255C16.0641 19.2237 16.7255 20.5773 16.7255 20.5773L16.7259 20.5782L16.7262 20.5786C16.8519 20.8362 17.1135 20.9996 17.4001 20.9996L17.4206 20.9993C17.5277 20.9963 17.6329 20.9705 17.7292 20.9235C17.9867 20.7977 18.1501 20.5362 18.1501 20.2496L18.1498 20.229C18.1469 20.1219 18.121 20.0167 18.074 19.9205L18.0738 19.9199C17.2237 18.1794 15.5807 17.1532 15.5807 17.1532C13.9375 16.127 12.0001 16.127 12.0001 16.127C10.0627 16.127 8.41947 17.1532 8.41947 17.1532C6.77652 18.1794 5.92644 19.9199 5.92644 19.9199L5.92618 19.9204C5.87611 20.023 5.8501 20.1355 5.8501 20.2496L5.85016 20.2593C5.8512 20.339 5.86493 20.418 5.89085 20.4934C5.95552 20.6815 6.09227 20.8362 6.27101 20.9235C6.3735 20.9735 6.48605 20.9996 6.6001 20.9996L6.61732 20.9994C6.89767 20.9929 7.151 20.8306 7.27404 20.5786C7.93548 19.224 9.21406 18.4255 9.21406 18.4255C10.4926 17.627 12.0001 17.627 12.0001 17.627C13.5076 17.627 14.7861 18.4255 14.7861 18.4255Z" fill="#1C1C1C"/>
<path id="Vector_8" d="M7.2619 6.33349C7.70958 6.81 7.83217 7.45222 7.83217 7.45222C7.86947 7.64761 7.98285 7.82017 8.14739 7.93196C8.27172 8.01643 8.41856 8.0616 8.56887 8.0616L8.57373 8.06158C8.6193 8.06129 8.66474 8.05684 8.7095 8.0483C9.0631 7.9808 9.31887 7.67158 9.31887 7.3116L9.31886 7.30737C9.3186 7.26159 9.31415 7.21594 9.30557 7.17097C9.10125 6.1006 8.35511 5.30641 8.35511 5.30641C7.60897 4.51222 6.55341 4.24159 6.55341 4.24159C5.49785 3.97096 4.46164 4.30817 4.46164 4.30817C3.42542 4.64538 2.7313 5.4854 2.7313 5.4854C2.03717 6.32542 1.90133 7.40663 1.90133 7.40663C1.76549 8.48783 2.23024 9.47345 2.23024 9.47345C2.69499 10.4591 3.61559 11.0421 3.61559 11.0421C4.53586 11.625 5.62512 11.6241 5.62512 11.6241L5.62588 11.6241C5.8248 11.6239 6.01548 11.5447 6.15599 11.4039C6.29631 11.2633 6.37512 11.0727 6.37512 10.8741L6.37512 10.8733C6.3747 10.4594 6.03904 10.1241 5.62512 10.1241L5.62436 10.1241C4.97054 10.1248 4.41818 9.77492 4.41818 9.77492C3.86583 9.42509 3.58698 8.83371 3.58698 8.83371C3.30812 8.24234 3.38963 7.59362 3.38963 7.59362C3.47113 6.94489 3.88761 6.44088 3.88761 6.44088C4.30408 5.93686 4.92581 5.73454 4.92581 5.73454C5.54754 5.53221 6.18088 5.69459 6.18088 5.69459C6.81422 5.85697 7.2619 6.33349 7.2619 6.33349Z" fill="#1C1C1C"/>
<path id="Vector_9" d="M19.5818 9.77492C19.0295 10.1248 18.3757 10.1241 18.3757 10.1241L18.3749 10.1241C18.3631 10.1241 18.3514 10.1244 18.3396 10.1249L17.6257 10.9094C17.6345 11.0956 17.7123 11.2719 17.844 11.4039C17.9845 11.5447 18.1752 11.6239 18.3741 11.6241L18.3749 11.6241C19.4642 11.625 20.3844 11.0421 20.3844 11.0421C21.305 10.4591 21.7698 9.47345 21.7698 9.47345C22.2345 8.48783 22.0987 7.40663 22.0987 7.40663C21.9629 6.32542 21.2687 5.4854 21.2687 5.4854C20.5746 4.64537 19.5384 4.30817 19.5384 4.30817C18.5022 3.97096 17.4466 4.24159 17.4466 4.24159C16.391 4.51222 15.6449 5.30641 15.6449 5.30641C14.8988 6.10059 14.6945 7.17097 14.6945 7.17097C14.6856 7.21732 14.6812 7.26441 14.6812 7.3116C14.6812 7.33413 14.6822 7.35666 14.6842 7.37911C14.7143 7.71248 14.9617 7.98553 15.2905 8.0483C15.3369 8.05714 15.384 8.0616 15.4312 8.0616C15.4537 8.0616 15.4762 8.06058 15.4987 8.05855C15.832 8.02842 16.1051 7.78102 16.1679 7.45222C16.2904 6.81 16.7381 6.33349 16.7381 6.33349C17.1858 5.85697 17.8191 5.69459 17.8191 5.69459C18.4525 5.53221 19.0742 5.73454 19.0742 5.73454C19.6959 5.93686 20.1124 6.44088 20.1124 6.44088C20.5289 6.94489 20.6104 7.59362 20.6104 7.59362C20.6919 8.24234 20.413 8.83371 20.413 8.83371C20.1342 9.42509 19.5818 9.77492 19.5818 9.77492Z" fill="#1C1C1C"/>
</g>
</svg>
