<svg width="48" height="52" viewBox="0 0 48 52" fill="none" xmlns="http://www.w3.org/2000/svg">
<path d="M46 8H2C0.89543 8 0 8.89543 0 10C0 11.1046 0.89543 12 2 12H46C47.1046 12 48 11.1046 48 10C48 8.89543 47.1046 8 46 8Z" fill="#EF4444"/>
<path d="M16 22V38C16 39.1046 16.8954 40 18 40C19.1046 40 20 39.1046 20 38V22C20 20.8954 19.1046 20 18 20C16.8954 20 16 20.8954 16 22Z" fill="#EF4444"/>
<path d="M28 22V38C28 39.1046 28.8954 40 30 40C31.1046 40 32 39.1046 32 38V22C32 20.8954 31.1046 20 30 20C28.8954 20 28 20.8954 28 22Z" fill="#EF4444"/>
<path d="M8 48V10C8 8.89543 7.10457 8 6 8C4.89543 8 4 8.89543 4 10V48C4 49.6569 5.17157 50.8284 5.17157 50.8284C6.34315 52 8 52 8 52H40C41.6569 52 42.8284 50.8284 42.8284 50.8284C44 49.6569 44 48 44 48V10C44 8.89543 43.1046 8 42 8C40.8954 8 40 8.89543 40 10V48H8Z" fill="#EF4444"/>
<path d="M13.7574 1.75736C12 3.51472 12 6 12 6V10C12 11.1046 12.8954 12 14 12C15.1046 12 16 11.1046 16 10V6C16 5.17157 16.5858 4.58579 16.5858 4.58579C17.1716 4 18 4 18 4H30C30.8284 4 31.4142 4.58579 31.4142 4.58579C32 5.17157 32 6 32 6V10C32 11.1046 32.8954 12 34 12C35.1046 12 36 11.1046 36 10V6C36 3.51472 34.2426 1.75736 34.2426 1.75736C32.4853 0 30 0 30 0H18C15.5147 0 13.7574 1.75736 13.7574 1.75736Z" fill="#EF4444"/>
</svg>
