<svg width="16" height="18" viewBox="0 0 16 18" fill="none" xmlns="http://www.w3.org/2000/svg">
<path d="M14.875 3.375H1.125C0.779822 3.375 0.5 3.65482 0.5 4C0.5 4.34518 0.779822 4.625 1.125 4.625H14.875C15.2202 4.625 15.5 4.34518 15.5 4C15.5 3.65482 15.2202 3.375 14.875 3.375Z" fill="#1C1C1C"/>
<path d="M5.5 7.75V12.75C5.5 13.0952 5.77982 13.375 6.125 13.375C6.47018 13.375 6.75 13.0952 6.75 12.75V7.75C6.75 7.40482 6.47018 7.125 6.125 7.125C5.77982 7.125 5.5 7.40482 5.5 7.75Z" fill="#1C1C1C"/>
<path d="M9.25 7.75V12.75C9.25 13.0952 9.52982 13.375 9.875 13.375C10.2202 13.375 10.5 13.0952 10.5 12.75V7.75C10.5 7.40482 10.2202 7.125 9.875 7.125C9.52982 7.125 9.25 7.40482 9.25 7.75Z" fill="#1C1C1C"/>
<path d="M3 15.875V4C3 3.65482 2.72018 3.375 2.375 3.375C2.02982 3.375 1.75 3.65482 1.75 4V15.875C1.75 16.3928 2.11612 16.7589 2.11612 16.7589C2.48223 17.125 3 17.125 3 17.125H13C13.5178 17.125 13.8839 16.7589 13.8839 16.7589C14.25 16.3928 14.25 15.875 14.25 15.875V4C14.25 3.65482 13.9702 3.375 13.625 3.375C13.2798 3.375 13 3.65482 13 4V15.875H3Z" fill="#1C1C1C"/>
<path d="M4.79918 1.42417C4.25 1.97335 4.25 2.75 4.25 2.75V4C4.25 4.34518 4.52982 4.625 4.875 4.625C5.22018 4.625 5.5 4.34518 5.5 4V2.75C5.5 2.49112 5.68306 2.30806 5.68306 2.30806C5.86612 2.125 6.125 2.125 6.125 2.125H9.875C10.1339 2.125 10.3169 2.30806 10.3169 2.30806C10.5 2.49112 10.5 2.75 10.5 2.75V4C10.5 4.34518 10.7798 4.625 11.125 4.625C11.4702 4.625 11.75 4.34518 11.75 4V2.75C11.75 1.97335 11.2008 1.42417 11.2008 1.42417C10.6517 0.875 9.875 0.875 9.875 0.875H6.125C5.34835 0.875 4.79918 1.42417 4.79918 1.42417Z" fill="#1C1C1C"/>
</svg>
