<svg width="17" height="16" viewBox="0 0 17 16" fill="none" xmlns="http://www.w3.org/2000/svg">
<path d="M11.4784 7.22874L11.4786 7.22855C11.5723 7.13479 11.625 7.00761 11.625 6.875C11.625 6.74239 11.5723 6.61521 11.4786 6.52145C11.3848 6.42768 11.2576 6.375 11.125 6.375C10.9924 6.375 10.8652 6.42768 10.7714 6.52145L10.7713 6.52163L8.5 8.79289L6.22861 6.52151C6.13479 6.42768 6.00761 6.375 5.875 6.375C5.74239 6.375 5.61521 6.42768 5.52145 6.52145C5.42768 6.61521 5.375 6.74239 5.375 6.875C5.375 7.00761 5.42768 7.13479 5.52145 7.22855L8.14645 9.85355C8.24021 9.94732 8.36739 10 8.5 10C8.63261 10 8.75978 9.94732 8.85355 9.85355L11.4784 7.22874Z" fill="#1C1C1C" stroke="black"/>
<path d="M8 2.5V9.5C8 9.77614 8.22386 10 8.5 10C8.77614 10 9 9.77614 9 9.5V2.5C9 2.22386 8.77614 2 8.5 2C8.22386 2 8 2.22386 8 2.5Z" fill="#1C1C1C" stroke="black"/>
<path d="M3.5 13V9.5C3.5 9.22386 3.27614 9 3 9C2.72386 9 2.5 9.22386 2.5 9.5V13C2.5 13.4142 2.79289 13.7071 2.79289 13.7071C3.08579 14 3.5 14 3.5 14H13.5C13.9142 14 14.2071 13.7071 14.2071 13.7071C14.5 13.4142 14.5 13 14.5 13V9.5C14.5 9.22386 14.2761 9 14 9C13.7239 9 13.5 9.22386 13.5 9.5V13H3.5Z" fill="#1C1C1C" stroke="black"/>
</svg>
