<svg width="17" height="16" viewBox="0 0 17 16" fill="none" xmlns="http://www.w3.org/2000/svg">
<path d="M15.32 0.595312C14.6356 -0.0890625 13.5294 -0.0890625 12.845 0.595312L11.9044 1.53281L14.9638 4.59219L15.9044 3.65156C16.5888 2.96719 16.5888 1.86094 15.9044 1.17656L15.32 0.595312ZM5.97002 7.47031C5.77939 7.66094 5.63252 7.89531 5.54814 8.15469L4.62314 10.9297C4.53252 11.1984 4.60439 11.4953 4.80439 11.6984C5.00439 11.9016 5.30127 11.9703 5.57314 11.8797L8.34814 10.9547C8.60439 10.8703 8.83877 10.7234 9.03252 10.5328L14.2606 5.30156L11.1981 2.23906L5.97002 7.47031ZM3.58252 1.91719C1.92627 1.91719 0.58252 3.26094 0.58252 4.91719V12.9172C0.58252 14.5734 1.92627 15.9172 3.58252 15.9172H11.5825C13.2388 15.9172 14.5825 14.5734 14.5825 12.9172V9.91719C14.5825 9.36406 14.1356 8.91719 13.5825 8.91719C13.0294 8.91719 12.5825 9.36406 12.5825 9.91719V12.9172C12.5825 13.4703 12.1356 13.9172 11.5825 13.9172H3.58252C3.02939 13.9172 2.58252 13.4703 2.58252 12.9172V4.91719C2.58252 4.36406 3.02939 3.91719 3.58252 3.91719H6.58252C7.13564 3.91719 7.58252 3.47031 7.58252 2.91719C7.58252 2.36406 7.13564 1.91719 6.58252 1.91719H3.58252Z" fill="#1C1C1C"/>
</svg>
