<svg width="24" height="24" viewBox="0 0 24 24" fill="none" xmlns="http://www.w3.org/2000/svg">
<g id="Calendar-r">
<g id="Union">
<path d="M9.53425 16.0925C9.35438 16.0378 9.2216 15.9047 9.2216 15.9047C9.08111 15.7639 8.89044 15.6846 8.69153 15.6844L8.69062 15.6844C8.67891 15.6844 8.6672 15.6847 8.6555 15.6852C8.46926 15.6939 8.29294 15.7717 8.16094 15.9034C8.01989 16.0441 7.94062 16.2351 7.94062 16.4344C7.94062 16.447 7.94094 16.4597 7.94158 16.4723C7.95096 16.6575 8.02865 16.8327 8.15965 16.9641C8.558 17.3634 9.09761 17.5276 9.09761 17.5276C9.63721 17.6917 10.1905 17.582 10.1905 17.582C10.7437 17.4722 11.1798 17.1144 11.1798 17.1144C11.6158 16.7567 11.8315 16.2355 11.8315 16.2355C12.0472 15.7144 11.9916 15.1531 11.9916 15.1531C11.936 14.5918 11.6221 14.1231 11.6221 14.1231C11.3723 13.75 11.0058 13.5058 11.0058 13.5058L11.8357 12.4685C12.0944 12.1451 12.042 11.6731 11.7185 11.4143C11.5855 11.308 11.4203 11.25 11.25 11.25H8.625C8.21079 11.25 7.875 11.5858 7.875 12C7.875 12.4142 8.21079 12.75 8.625 12.75H9.68953L9.16435 13.4065C9.05769 13.5398 8.99971 13.7055 9 13.8763C9.00034 14.0752 9.07969 14.2658 9.22058 14.4062C9.36147 14.5466 9.55237 14.6253 9.75128 14.625C9.93929 14.6247 10.1052 14.7131 10.1052 14.7131C10.2712 14.8015 10.3758 14.9577 10.3758 14.9577C10.4804 15.1139 10.4989 15.301 10.4989 15.301C10.5175 15.4881 10.4455 15.6618 10.4455 15.6618C10.3736 15.8356 10.2283 15.9548 10.2283 15.9548C10.0829 16.0741 9.89853 16.1107 9.89853 16.1107C9.71412 16.1472 9.53425 16.0925 9.53425 16.0925Z" fill="#1C1C1C"/>
<path d="M14.25 16.875V13.5L13.95 13.725C13.8229 13.8203 13.6687 13.8729 13.5098 13.8749L13.5 13.875C13.2639 13.875 13.0416 13.7639 12.9 13.575C12.8032 13.4459 12.7506 13.289 12.75 13.1276L12.75 13.125C12.75 13.0895 12.7525 13.0541 12.7575 13.0189C12.7857 12.822 12.8909 12.6443 13.05 12.525L14.55 11.4C14.6798 11.3026 14.8377 11.25 15 11.25C15.4142 11.25 15.75 11.5858 15.75 12V16.875C15.75 17.2892 15.4142 17.625 15 17.625C14.5858 17.625 14.25 17.2892 14.25 16.875Z" fill="#1C1C1C"/>
<path fill-rule="evenodd" clip-rule="evenodd" d="M15.75 3V2.25C15.75 1.83579 16.0858 1.5 16.5 1.5C16.9142 1.5 17.25 1.83579 17.25 2.25V3H19.5C19.5 3 20.1213 3 20.5607 3.43934C20.5607 3.43934 21 3.87868 21 4.5V19.5C21 19.5 21 20.1213 20.5607 20.5607C20.5607 20.5607 20.1213 21 19.5 21H4.5C4.5 21 3.87868 21 3.43934 20.5607C3.43934 20.5607 3 20.1213 3 19.5V4.5C3 4.5 3 3.87868 3.43934 3.43934C3.43934 3.43934 3.87868 3 4.5 3H6.75V2.25C6.75 1.83579 7.08579 1.5 7.5 1.5C7.91421 1.5 8.25 1.83579 8.25 2.25V3H15.75ZM4.5 9V19.5H19.5V9H4.5ZM19.5 7.5H4.5V4.5H6.75V5.25C6.75 5.66421 7.08579 6 7.5 6C7.91421 6 8.25 5.66421 8.25 5.25V4.5H15.75V5.25C15.75 5.66421 16.0858 6 16.5 6C16.9142 6 17.25 5.66421 17.25 5.25V4.5H19.5V7.5Z" fill="#1C1C1C"/>
</g>
</g>
</svg>
