<svg width="16" height="16" viewBox="0 0 16 16" fill="none" xmlns="http://www.w3.org/2000/svg">
<g id="CalendarPlus-r">
<g id="Vector">
<path fill-rule="evenodd" clip-rule="evenodd" d="M2 3C2 3 2 2.58579 2.29289 2.29289C2.29289 2.29289 2.58579 2 3 2H13C13 2 13.4142 2 13.7071 2.29289C13.7071 2.29289 14 2.58579 14 3V13C14 13 14 13.4142 13.7071 13.7071C13.7071 13.7071 13.4142 14 13 14H3C3 14 2.58579 14 2.29289 13.7071C2.29289 13.7071 2 13.4142 2 13V3ZM3 3V13H13V3H3Z" fill="white"/>
<path d="M10.5 1.5V3.5C10.5 3.77614 10.7239 4 11 4C11.2761 4 11.5 3.77614 11.5 3.5V1.5C11.5 1.22386 11.2761 1 11 1C10.7239 1 10.5 1.22386 10.5 1.5Z" fill="white"/>
<path d="M4.5 1.5V3.5C4.5 3.77614 4.72386 4 5 4C5.27614 4 5.5 3.77614 5.5 3.5V1.5C5.5 1.22386 5.27614 1 5 1C4.72386 1 4.5 1.22386 4.5 1.5Z" fill="white"/>
<path d="M2.5 6H13.5C13.7761 6 14 5.77614 14 5.5C14 5.22386 13.7761 5 13.5 5H2.5C2.22386 5 2 5.22386 2 5.5C2 5.77614 2.22386 6 2.5 6Z" fill="white"/>
<path d="M9.75 9H6.25C5.97386 9 5.75 9.22386 5.75 9.5C5.75 9.77614 5.97386 10 6.25 10H9.75C10.0261 10 10.25 9.77614 10.25 9.5C10.25 9.22386 10.0261 9 9.75 9Z" fill="white"/>
<path d="M7.5 7.75V11.25C7.5 11.5261 7.72386 11.75 8 11.75C8.27614 11.75 8.5 11.5261 8.5 11.25V7.75C8.5 7.47386 8.27614 7.25 8 7.25C7.72386 7.25 7.5 7.47386 7.5 7.75Z" fill="white"/>
</g>
</g>
</svg>
