<svg width="19" height="18" viewBox="0 0 19 18" fill="none" xmlns="http://www.w3.org/2000/svg">
<path d="M10.0625 3.9375C10.0625 3.62684 9.81066 3.375 9.5 3.375C9.18934 3.375 8.9375 3.62684 8.9375 3.9375V8.4375H4.4375C4.12684 8.4375 3.875 8.68934 3.875 9C3.875 9.31066 4.12684 9.5625 4.4375 9.5625H8.9375V14.0625C8.9375 14.3732 9.18934 14.625 9.5 14.625C9.81066 14.625 10.0625 14.3732 10.0625 14.0625V9.5625H14.5625C14.8732 9.5625 15.125 9.31066 15.125 9C15.125 8.68934 14.8732 8.4375 14.5625 8.4375H10.0625V3.9375Z" fill="white"/>
</svg>
