<svg width="20" height="20" viewBox="0 0 20 20" fill="none" xmlns="http://www.w3.org/2000/svg">
<g id="PaperPlaneRight-r">
<g id="Vector">
<path fill-rule="evenodd" clip-rule="evenodd" d="M17.4539 8.90861C17.4539 8.90861 17.7503 9.07355 17.9227 9.36594C17.9227 9.36594 18.0959 9.65974 18.0959 10.0008C18.0959 10.0008 18.0959 10.3418 17.9227 10.6356C17.9227 10.6356 17.7495 10.9294 17.451 11.0945L4.25857 18.4836C4.25857 18.4836 3.91401 18.6739 3.52596 18.635C3.52596 18.635 3.13791 18.596 2.84088 18.3432C2.84088 18.3432 2.54385 18.0905 2.44324 17.7137C2.44324 17.7137 2.34263 17.3369 2.47413 16.9697L4.95858 10.0008L2.47382 3.03098C2.47382 3.03098 2.34263 2.66468 2.44324 2.28788C2.44324 2.28788 2.54385 1.91108 2.84088 1.65834C2.84088 1.65834 3.13791 1.40561 3.52596 1.36662C3.52596 1.36662 3.91401 1.32763 4.25538 1.51622L17.451 8.90703L17.4539 8.90861ZM3.65093 2.61036L16.8431 9.99921L16.8459 10.0008L3.65093 17.3912L6.13187 10.4321C6.13187 10.4321 6.30086 10.0008 6.13187 9.56948L3.65093 2.61036Z" fill="#1C1C1C" fill-opacity="0.2"/>
<path d="M5.62503 10.6258H10.625C10.9702 10.6258 11.25 10.346 11.25 10.0008C11.25 9.65565 10.9702 9.37582 10.625 9.37582H5.62503C5.27985 9.37582 5.00003 9.65565 5.00003 10.0008C5.00003 10.346 5.27985 10.6258 5.62503 10.6258Z" fill="#1C1C1C" fill-opacity="0.2"/>
</g>
</g>
</svg>
