<svg width="24" height="24" viewBox="0 0 24 24" fill="none" xmlns="http://www.w3.org/2000/svg">
<g id="GearSix-r">
<g id="Vector">
<path fill-rule="evenodd" clip-rule="evenodd" d="M12.0001 6.74957C12.0001 6.74957 14.1747 6.74957 15.7124 8.28726C15.7124 8.28726 17.2501 9.82495 17.2501 11.9996C17.2501 11.9996 17.2501 14.1742 15.7124 15.7119C15.7124 15.7119 14.1747 17.2496 12.0001 17.2496C12.0001 17.2496 9.8255 17.2496 8.28781 15.7119C8.28781 15.7119 6.75012 14.1742 6.75012 11.9996C6.75012 11.9996 6.75012 9.82495 8.28781 8.28726C8.28781 8.28726 9.8255 6.74957 12.0001 6.74957ZM12.0001 8.24957C12.0001 8.24957 10.4468 8.24957 9.34847 9.34792C9.34847 9.34792 8.25012 10.4463 8.25012 11.9996C8.25012 11.9996 8.25012 13.5529 9.34847 14.6512C9.34847 14.6512 10.4468 15.7496 12.0001 15.7496C12.0001 15.7496 13.5534 15.7496 14.6518 14.6512C14.6518 14.6512 15.7501 13.5529 15.7501 11.9996C15.7501 11.9996 15.7501 10.4463 14.6518 9.34792C14.6518 9.34792 13.5534 8.24957 12.0001 8.24957Z" fill="#1C1C1C"/>
<path fill-rule="evenodd" clip-rule="evenodd" d="M19.3032 4.79349L19.2603 7.34179C19.2603 7.34179 19.4825 7.68306 19.6673 8.04603L21.8896 9.28161C22.0767 9.38566 22.2105 9.56472 22.2571 9.77368C22.2571 9.77368 22.7535 11.9968 22.2672 14.2222C22.2212 14.433 22.0866 14.6137 21.8979 14.7182L19.6669 15.9538C19.6669 15.9538 19.4824 16.3165 19.2603 16.6574L19.3032 19.2057C19.3068 19.4211 19.2176 19.6276 19.0584 19.7727C19.0584 19.7727 17.3768 21.3051 15.2118 22.004C15.0058 22.0705 14.7811 22.0447 14.5955 21.9334L12.4032 20.618C12.4032 20.618 11.9999 20.636 11.5966 20.6179L9.41339 21.9244C9.22931 22.0346 9.00688 22.0606 8.80232 21.996C8.80232 21.996 6.62755 21.3089 4.94184 19.7727C4.78263 19.6276 4.69349 19.4211 4.69712 19.2057L4.74007 16.6632C4.74007 16.6632 4.51913 16.3184 4.33344 15.9534L2.11069 14.7176C1.92356 14.6136 1.78982 14.4345 1.74316 14.2255C1.74316 14.2255 1.2468 12.0024 1.73305 9.77701C1.7791 9.56626 1.91368 9.38554 2.10239 9.28102L4.33334 8.04541C4.33334 8.04541 4.51793 7.68276 4.74002 7.34179L4.69712 4.79349C4.6935 4.57812 4.78264 4.37158 4.94186 4.2265C4.94186 4.2265 6.62345 2.69415 8.78849 1.99525C8.99448 1.92876 9.21915 1.9545 9.40476 2.06587L11.5971 3.38126C11.5971 3.38126 12.0004 3.3632 12.4037 3.38128L14.5869 2.0748C14.771 1.96464 14.9934 1.93858 15.198 2.0032C15.198 2.0032 17.3727 2.69029 19.0584 4.22652C19.2176 4.3716 19.3068 4.57813 19.3032 4.79349ZM17.7565 7.55261L17.7975 5.11502C17.7975 5.11502 16.5728 4.0777 15.0609 3.53923L12.9759 4.78693C12.8439 4.86594 12.6907 4.90243 12.5373 4.89145C12.5373 4.89145 12.0001 4.85303 11.463 4.89145C11.3093 4.90245 11.1558 4.8658 11.0236 4.78648L8.93197 3.53148C8.93197 3.53148 7.42538 4.07843 6.20275 5.11494L6.24378 7.55261C6.24644 7.71052 6.19919 7.86523 6.10875 7.99471C6.10875 7.99471 5.80645 8.42751 5.58233 8.90551C5.51528 9.0485 5.4048 9.16669 5.26664 9.2432L3.13312 10.4248C3.13312 10.4248 2.84881 12.0001 3.14077 13.5741L5.26771 14.7566C5.40483 14.8328 5.51459 14.9502 5.58154 15.092C5.58154 15.092 5.81051 15.5773 6.11317 16.0203C6.20077 16.1485 6.24641 16.3008 6.24378 16.456L6.20277 18.8842C6.20277 18.8842 7.42745 19.9215 8.93943 20.46L11.0244 19.2123C11.1564 19.1333 11.3096 19.0968 11.463 19.1078C11.463 19.1078 12.0001 19.1462 12.5373 19.1078C12.691 19.0968 12.8444 19.1334 12.9766 19.2127L15.0683 20.4677C15.0683 20.4677 16.5749 19.9208 17.7975 18.8843L17.7565 16.4466C17.7538 16.2887 17.8011 16.134 17.8915 16.0045C17.8915 16.0045 18.1938 15.5717 18.418 15.0937C18.485 14.9507 18.5955 14.8325 18.7336 14.756L20.8672 13.5744C20.8672 13.5744 21.1515 11.9991 20.8595 10.4252L18.7326 9.24261C18.5949 9.16607 18.4848 9.04812 18.418 8.90551C18.418 8.90551 18.1938 8.42752 17.8915 7.99471C17.8011 7.86523 17.7538 7.71052 17.7565 7.55261Z" fill="#1C1C1C"/>
</g>
</g>
</svg>
