<svg width="60" height="60" viewBox="0 0 60 60" fill="none" xmlns="http://www.w3.org/2000/svg">
<g id="UploadSimple-r">
<g id="Vector">
<path d="M38.517 20.5436C38.8686 20.8952 39.3465 21.0938 39.8438 21.0938C40.341 21.0937 40.8179 20.8962 41.1696 20.5446C41.5212 20.1929 41.7188 19.716 41.7188 19.2188C41.7188 18.7215 41.5212 18.2446 41.1696 17.8929L31.3258 8.04917C30.9742 7.69754 30.4973 7.5 30 7.5C29.5027 7.5 29.0258 7.69754 28.6742 8.04917L18.8311 17.8922C18.4795 18.2439 18.2812 18.7215 18.2812 19.2188C18.2812 19.2488 18.282 19.2788 18.2834 19.3088C18.3058 19.7744 18.5008 20.215 18.8304 20.5446C19.1821 20.8962 19.659 21.0938 20.1562 21.0938C20.6535 21.0937 21.1304 20.8962 21.4821 20.5446L30 12.0266L38.517 20.5436Z" fill="#1C1C1C"/>
<path d="M31.875 35.625V9.375C31.875 8.33947 31.0355 7.5 30 7.5C28.9645 7.5 28.125 8.33947 28.125 9.375V35.625C28.125 36.6605 28.9645 37.5 30 37.5C31.0355 37.5 31.875 36.6605 31.875 35.625Z" fill="#1C1C1C"/>
<path d="M11.25 48.75V35.625C11.25 34.5895 10.4105 33.75 9.375 33.75C8.33947 33.75 7.5 34.5895 7.5 35.625V48.75C7.5 50.3033 8.59835 51.4017 8.59835 51.4017C9.6967 52.5 11.25 52.5 11.25 52.5H48.75C50.3033 52.5 51.4017 51.4017 51.4017 51.4017C52.5 50.3033 52.5 48.75 52.5 48.75V35.625C52.5 34.5895 51.6605 33.75 50.625 33.75C49.5895 33.75 48.75 34.5895 48.75 35.625V48.75H11.25Z" fill="#1C1C1C"/>
</g>
</g>
</svg>
