<svg width="17" height="16" viewBox="0 0 17 16" fill="none" xmlns="http://www.w3.org/2000/svg">
<g id="UploadSimple-r">
<g id="Vector">
<path d="M10.7712 5.47829C10.865 5.57206 10.9924 5.625 11.125 5.625C11.2576 5.625 11.3848 5.57232 11.4786 5.47855C11.5723 5.38479 11.625 5.25761 11.625 5.125C11.625 4.99239 11.5723 4.86521 11.4786 4.77145L8.85355 2.14645C8.75978 2.05268 8.63261 2 8.5 2C8.36739 2 8.24022 2.05268 8.14645 2.14645L5.52163 4.77126C5.42787 4.86503 5.375 4.99239 5.375 5.125C5.375 5.13301 5.37519 5.14102 5.37558 5.14902C5.38155 5.27318 5.43355 5.39066 5.52145 5.47855C5.61521 5.57232 5.74239 5.625 5.875 5.625C6.00761 5.625 6.13479 5.57232 6.22855 5.47855L8.5 3.20711L10.7712 5.47829Z" fill="white"/>
<path d="M9 9.5V2.5C9 2.22386 8.77614 2 8.5 2C8.22386 2 8 2.22386 8 2.5V9.5C8 9.77614 8.22386 10 8.5 10C8.77614 10 9 9.77614 9 9.5Z" fill="white"/>
<path d="M3.5 13V9.5C3.5 9.22386 3.27614 9 3 9C2.72386 9 2.5 9.22386 2.5 9.5V13C2.5 13.4142 2.79289 13.7071 2.79289 13.7071C3.08579 14 3.5 14 3.5 14H13.5C13.9142 14 14.2071 13.7071 14.2071 13.7071C14.5 13.4142 14.5 13 14.5 13V9.5C14.5 9.22386 14.2761 9 14 9C13.7239 9 13.5 9.22386 13.5 9.5V13H3.5Z" fill="white"/>
</g>
</g>
</svg>
