<svg width="16" height="16" viewBox="0 0 16 16" fill="none" xmlns="http://www.w3.org/2000/svg">
<g id="UsersThree-r">
<g id="Vector">
<path fill-rule="evenodd" clip-rule="evenodd" d="M8 5.7496C8 5.7496 9.24264 5.7496 10.1213 6.62828C10.1213 6.62828 11 7.50696 11 8.7496C11 8.7496 11 9.99224 10.1213 10.8709C10.1213 10.8709 9.24264 11.7496 8 11.7496C8 11.7496 6.75736 11.7496 5.87868 10.8709C5.87868 10.8709 5 9.99224 5 8.7496C5 8.7496 5 7.50696 5.87868 6.62828C5.87868 6.62828 6.75736 5.7496 8 5.7496ZM8 6.7496C8 6.7496 7.17157 6.7496 6.58579 7.33539C6.58579 7.33539 6 7.92117 6 8.7496C6 8.7496 6 9.57803 6.58579 10.1638C6.58579 10.1638 7.17157 10.7496 8 10.7496C8 10.7496 8.82843 10.7496 9.41421 10.1638C9.41421 10.1638 10 9.57803 10 8.7496C10 8.7496 10 7.92117 9.41421 7.33539C9.41421 7.33539 8.82843 6.7496 8 6.7496Z" fill="white"/>
<path d="M14.8493 9.04872C14.9287 9.15494 15.0472 9.22549 15.1785 9.24446C15.2022 9.24789 15.2261 9.2496 15.25 9.2496L15.2509 9.2496C15.3585 9.24941 15.4632 9.21452 15.5493 9.15011C15.6756 9.05571 15.75 8.90728 15.75 8.74961L15.75 8.74388C15.7488 8.63794 15.7139 8.53513 15.6505 8.45027L15.6501 8.4497C15.0491 7.64584 14.1513 7.19696 14.1513 7.19696C13.2533 6.74793 12.2492 6.74961 12.2492 6.74961L12.25 6.7496C12.5262 6.7496 12.75 6.97346 12.75 7.2496C12.75 7.52531 12.5268 7.74899 12.2511 7.7496L14.8493 9.04872Z" fill="white"/>
<path d="M2.29589 8.09139C2.98204 7.74832 3.74916 7.7496 3.74916 7.7496L3.74986 7.7496C3.7576 7.7496 3.76546 7.74943 3.77318 7.74907C3.89735 7.7433 4.01492 7.6915 4.10296 7.60375C4.19689 7.51014 4.24978 7.38305 4.25 7.25044L4.25 7.24975C4.25 7.21951 4.24726 7.18919 4.2418 7.15945C4.19834 6.92234 3.99189 6.75001 3.75084 6.74961L3.75 6.7496C2.74638 6.74811 1.84868 7.19696 1.84868 7.19696C0.950921 7.64584 0.349925 8.4497 0.349925 8.4497L0.349564 8.45019C0.284904 8.5367 0.25 8.64171 0.25 8.7496L0.250027 8.75484C0.25026 8.77703 0.251969 8.79918 0.255144 8.82114C0.274117 8.95239 0.34445 9.07072 0.45067 9.15011C0.537097 9.2147 0.642101 9.2496 0.75 9.2496C0.756684 9.2496 0.763369 9.24947 0.770049 9.2492C0.920559 9.24316 1.06032 9.16959 1.1505 9.04893C1.60975 8.43446 2.29589 8.09139 2.29589 8.09139Z" fill="white"/>
<path d="M9.85735 12.2835C10.7093 12.8157 11.1503 13.7181 11.1503 13.7181L11.1505 13.7187C11.2344 13.8904 11.4089 13.9996 11.6 13.9996L11.6137 13.9994C11.6851 13.9974 11.7552 13.9802 11.8194 13.9489C11.9911 13.865 12.1 13.6907 12.1 13.4996L12.0998 13.4859C12.0979 13.4145 12.0806 13.3444 12.0493 13.2802C11.4826 12.1199 10.3871 11.4354 10.3871 11.4354C9.29159 10.7512 7.99999 10.7512 7.99999 10.7512C6.7084 10.7512 5.61291 11.4354 5.61291 11.4354C4.51761 12.1195 3.95089 13.2798 3.95089 13.2798C3.91751 13.3482 3.89999 13.4236 3.89999 13.4996L3.90004 13.5061C3.90073 13.5592 3.90988 13.6119 3.92716 13.6622C3.97028 13.7876 4.06144 13.8907 4.18061 13.9489C4.24893 13.9822 4.32396 13.9996 4.39999 13.9996L4.41147 13.9995C4.59837 13.9952 4.76726 13.887 4.84929 13.719C5.29025 12.8159 6.14264 12.2835 6.14264 12.2835C6.99502 11.7512 7.99999 11.7512 7.99999 11.7512C9.00497 11.7512 9.85735 12.2835 9.85735 12.2835Z" fill="white"/>
<path d="M4.84117 4.22251C5.13963 4.54019 5.22136 4.96834 5.22136 4.96834C5.24622 5.09859 5.32181 5.21364 5.4315 5.28816C5.51439 5.34448 5.61228 5.37459 5.71249 5.37459L5.71573 5.37458C5.74611 5.37438 5.7764 5.37141 5.80624 5.36572C6.04198 5.32072 6.21249 5.11458 6.21249 4.87459L6.21248 4.87177C6.21231 4.84125 6.20934 4.81081 6.20362 4.78084C6.06741 4.06725 5.56998 3.5378 5.56998 3.5378C5.07256 3.00834 4.36885 2.82792 4.36885 2.82792C3.66514 2.64749 2.97433 2.8723 2.97433 2.8723C2.28352 3.09711 1.82077 3.65712 1.82077 3.65712C1.35802 4.21714 1.26746 4.93794 1.26746 4.93794C1.1769 5.65874 1.48674 6.31583 1.48674 6.31583C1.79657 6.97291 2.4103 7.36162 2.4103 7.36162C3.02381 7.75019 3.74986 7.7496 3.74986 7.7496L3.7505 7.74959C3.88311 7.74945 4.01023 7.69664 4.1039 7.60278C4.19745 7.50904 4.25 7.38218 4.25 7.24975L4.24999 7.24908C4.24971 6.97313 4.02594 6.7496 3.75 6.7496L3.74948 6.74959C3.3136 6.75003 2.94536 6.5168 2.94536 6.5168C2.57713 6.28358 2.39123 5.88933 2.39123 5.88933C2.20532 5.49508 2.25966 5.0626 2.25966 5.0626C2.314 4.63012 2.59165 4.29411 2.59165 4.29411C2.8693 3.9581 3.28378 3.82322 3.28378 3.82322C3.69827 3.68833 4.1205 3.79658 4.1205 3.79658C4.54272 3.90484 4.84117 4.22251 4.84117 4.22251Z" fill="white"/>
<path d="M13.0546 6.5168C12.6864 6.75003 12.2505 6.74959 12.2505 6.74959L12.25 6.7496C12.2422 6.7496 12.2343 6.74977 12.2265 6.75014L11.7506 7.2731C11.7564 7.39726 11.8083 7.5148 11.8961 7.60278C11.9898 7.69664 12.1169 7.74945 12.2495 7.74959L12.25 7.74959C12.9762 7.75019 13.5897 7.36162 13.5897 7.36162C14.2034 6.97291 14.5133 6.31583 14.5133 6.31583C14.8231 5.65874 14.7325 4.93794 14.7325 4.93794C14.642 4.21714 14.1792 3.65712 14.1792 3.65712C13.7165 3.09711 13.0257 2.8723 13.0257 2.8723C12.3349 2.64749 11.6311 2.82792 11.6311 2.82792C10.9274 3.00834 10.43 3.5378 10.43 3.5378C9.93259 4.06725 9.79637 4.78084 9.79637 4.78084C9.79047 4.81174 9.78751 4.84313 9.78751 4.87459C9.78751 4.88961 9.78818 4.90463 9.78954 4.91959C9.80962 5.14184 9.97456 5.32388 10.1938 5.36572C10.2247 5.37162 10.256 5.37459 10.2875 5.37459C10.3025 5.37459 10.3175 5.37391 10.3325 5.37256C10.5548 5.35247 10.7368 5.18754 10.7786 4.96834C10.8604 4.54019 11.1588 4.22251 11.1588 4.22251C11.4573 3.90484 11.8795 3.79658 11.8795 3.79658C12.3017 3.68833 12.7162 3.82322 12.7162 3.82322C13.1307 3.9581 13.4083 4.29411 13.4083 4.29411C13.686 4.63012 13.7403 5.0626 13.7403 5.0626C13.7947 5.49508 13.6088 5.88933 13.6088 5.88933C13.4229 6.28358 13.0546 6.5168 13.0546 6.5168Z" fill="white"/>
</g>
</g>
</svg>
