<svg width="24" height="24" viewBox="0 0 24 24" fill="none" xmlns="http://www.w3.org/2000/svg">
<g id="icon">
<path id="Vector" d="M6.5 4C7.16304 4 7.79893 4.27725 8.26777 4.77077C8.73661 5.26429 9 5.93364 9 6.63158C9 7.32952 8.73661 7.99887 8.26777 8.49239C7.79893 8.9859 7.16304 9.26316 6.5 9.26316C5.83696 9.26316 5.20107 8.9859 4.73223 8.49239C4.26339 7.99887 4 7.32952 4 6.63158C4 5.93364 4.26339 5.26429 4.73223 4.77077C5.20107 4.27725 5.83696 4 6.5 4ZM18 4C18.663 4 19.2989 4.27725 19.7678 4.77077C20.2366 5.26429 20.5 5.93364 20.5 6.63158C20.5 7.32952 20.2366 7.99887 19.7678 8.49239C19.2989 8.9859 18.663 9.26316 18 9.26316C17.337 9.26316 16.7011 8.9859 16.2322 8.49239C15.7634 7.99887 15.5 7.32952 15.5 6.63158C15.5 5.93364 15.7634 5.26429 16.2322 4.77077C16.7011 4.27725 17.337 4 18 4ZM2 13.8257C2 11.8882 3.49375 10.3158 5.33437 10.3158H6.66875C7.16562 10.3158 7.6375 10.4309 8.0625 10.6349C8.02187 10.8717 8.00313 11.1184 8.00313 11.3684C8.00313 12.625 8.52812 13.7533 9.35625 14.5263C9.35 14.5263 9.34375 14.5263 9.33437 14.5263H2.66562C2.3 14.5263 2 14.2105 2 13.8257ZM14.6656 14.5263C14.6594 14.5263 14.6531 14.5263 14.6438 14.5263C15.475 13.7533 15.9969 12.625 15.9969 11.3684C15.9969 11.1184 15.975 10.875 15.9375 10.6349C16.3625 10.4276 16.8344 10.3158 17.3313 10.3158H18.6656C20.5063 10.3158 22 11.8882 22 13.8257C22 14.2138 21.7 14.5263 21.3344 14.5263H14.6656ZM9 11.3684C9 10.5309 9.31607 9.72767 9.87868 9.13545C10.4413 8.54323 11.2044 8.21053 12 8.21053C12.7956 8.21053 13.5587 8.54323 14.1213 9.13545C14.6839 9.72767 15 10.5309 15 11.3684C15 12.2059 14.6839 13.0092 14.1213 13.6014C13.5587 14.1936 12.7956 14.5263 12 14.5263C11.2044 14.5263 10.4413 14.1936 9.87868 13.6014C9.31607 13.0092 9 12.2059 9 11.3684ZM6 19.9638C6 17.5428 7.86562 15.5789 10.1656 15.5789H13.8344C16.1344 15.5789 18 17.5428 18 19.9638C18 20.4474 17.6281 20.8421 17.1656 20.8421H6.83437C6.375 20.8421 6 20.4507 6 19.9638Z" fill="#1C1C1C"/>
</g>
</svg>
