<svg width="24" height="24" viewBox="0 0 24 24" fill="none" xmlns="http://www.w3.org/2000/svg">
<path fill-rule="evenodd" clip-rule="evenodd" d="M12 6.75027C12 6.75027 13.864 6.75027 15.182 8.06829C15.182 8.06829 16.5 9.38631 16.5 11.2503C16.5 11.2503 16.5 13.1142 15.182 14.4322C15.182 14.4322 13.864 15.7503 12 15.7503C12 15.7503 10.136 15.7503 8.81802 14.4322C8.81802 14.4322 7.5 13.1142 7.5 11.2503C7.5 11.2503 7.5 9.38631 8.81802 8.06829C8.81802 8.06829 10.136 6.75027 12 6.75027ZM12 8.25027C12 8.25027 10.7574 8.25027 9.87868 9.12895C9.87868 9.12895 9 10.0076 9 11.2503C9 11.2503 9 12.4929 9.87868 13.3716C9.87868 13.3716 10.7574 14.2503 12 14.2503C12 14.2503 13.2426 14.2503 14.1213 13.3716C14.1213 13.3716 15 12.4929 15 11.2503C15 11.2503 15 10.0076 14.1213 9.12895C14.1213 9.12895 13.2426 8.25027 12 8.25027Z" fill="#1C1C1C"/>
<path d="M15.1387 16.6362C16.5829 17.5226 17.35 19.0336 17.35 19.0336C17.44 19.2109 17.5968 19.3453 17.7859 19.407C17.8611 19.4315 17.9397 19.444 18.0187 19.444L18.0393 19.4438C18.1503 19.4407 18.2592 19.4131 18.3582 19.3628C18.6101 19.2349 18.7687 18.9765 18.7687 18.694C18.7687 18.6833 18.7685 18.6726 18.768 18.6619C18.7634 18.5548 18.736 18.45 18.6875 18.3545L18.6871 18.3538C17.7283 16.4656 15.9234 15.3578 15.9234 15.3578C14.1181 14.2497 12 14.2503 12 14.2503C9.88183 14.2503 8.07659 15.3578 8.07659 15.3578C6.27136 16.4658 5.31248 18.3545 5.31248 18.3545C5.25907 18.4597 5.23123 18.5761 5.23123 18.694L5.23125 18.6996C5.23333 18.98 5.39167 19.2358 5.64171 19.3628C5.74692 19.4162 5.86324 19.444 5.98123 19.444L5.9868 19.444C6.26721 19.4419 6.52304 19.2836 6.64998 19.0336C7.41708 17.5226 8.86127 16.6362 8.86127 16.6362C10.3054 15.7497 12 15.7503 12 15.7503C13.6945 15.7503 15.1387 16.6362 15.1387 16.6362Z" fill="#1C1C1C"/>
<path d="M21.5303 14.7806L23.78 12.5309C23.9207 12.3902 24 12.1992 24 12.0003C24 11.8014 23.921 11.6106 23.7803 11.4699C23.6397 11.3293 23.4489 11.2503 23.25 11.2503C23.0511 11.2503 22.8603 11.3293 22.7197 11.4699L21 13.1896L19.2803 11.4699C19.1397 11.3293 18.9489 11.2503 18.75 11.2503C18.5511 11.2503 18.3603 11.3293 18.2197 11.4699C18.079 11.6106 18 11.8014 18 12.0003C18 12.1992 18.079 12.3899 18.2197 12.5306L20.4697 14.7806C20.7626 15.0735 21.2374 15.0735 21.5303 14.7806Z" fill="#1C1C1C"/>
<path d="M4.71943 12.5304C4.86009 12.671 5.05109 12.7503 5.25 12.7503C5.26201 12.7503 5.27403 12.75 5.28603 12.7494C5.47226 12.7404 5.64849 12.6624 5.78033 12.5306C5.92098 12.3899 6 12.1992 6 12.0003C6 11.8014 5.92098 11.6106 5.78033 11.4699L3.53033 9.21994C3.23744 8.92704 2.76256 8.92704 2.46967 9.21994L0.21967 11.4699C0.0790176 11.6106 0 11.8014 0 12.0003C0 12.1992 0.0790176 12.3899 0.21967 12.5306C0.360322 12.6712 0.551088 12.7503 0.75 12.7503C0.948912 12.7503 1.13968 12.6712 1.28033 12.5306L3 10.8109L4.71943 12.5304Z" fill="#1C1C1C"/>
<path d="M3.8041 6.70934C3.72607 6.83046 3.68436 6.97181 3.68436 7.11589L3.68449 7.12984C3.68539 7.17848 3.69103 7.22691 3.70131 7.27446C3.74337 7.46888 3.86093 7.63862 4.02814 7.74636C4.14926 7.82439 4.29028 7.86589 4.43436 7.86589L4.43936 7.86587C4.6925 7.86418 4.92772 7.7349 5.06483 7.5221C6.55199 5.21392 9.12575 4.25731 9.12575 4.25731C11.6995 3.3007 14.3332 4.07724 14.3332 4.07724C16.9669 4.85379 18.6099 7.05372 18.6099 7.05372C20.253 9.25366 20.25 11.9994 20.25 11.9994V14.2503C20.25 14.6645 20.5858 15.0003 21 15.0003C21.4142 15.0003 21.75 14.6645 21.75 14.2503V12.0011C21.7535 8.75607 19.8117 6.15614 19.8117 6.15614C17.87 3.55621 14.7574 2.63848 14.7574 2.63848C11.6449 1.72075 8.60316 2.85129 8.60316 2.85129C5.56163 3.98176 3.8041 6.70934 3.8041 6.70934Z" fill="#1C1C1C"/>
<path d="M15.3968 21.1492C18.4385 20.0187 20.1961 17.2909 20.1961 17.2909C20.2741 17.1697 20.3156 17.0287 20.3156 16.8846L20.3156 16.8796C20.3139 16.6265 20.1846 16.3913 19.9718 16.2542C19.8507 16.1761 19.7097 16.1346 19.5656 16.1346L19.5606 16.1347C19.3075 16.1363 19.0723 16.2656 18.9352 16.4784C17.448 18.7866 14.8742 19.7432 14.8742 19.7432C12.3005 20.6998 9.66679 19.9233 9.66679 19.9233C7.0331 19.1467 5.39006 16.9468 5.39006 16.9468C3.74701 14.7469 3.75001 12.0011 3.75001 12.0011V9.75027C3.75001 9.33605 3.41422 9.00027 3.00001 9.00027C2.58579 9.00027 2.25001 9.33605 2.25001 9.75027L2.25001 11.9994C2.24646 15.2445 4.18825 17.8444 4.18825 17.8444C6.13003 20.4443 9.24257 21.362 9.24257 21.362C12.3551 22.2798 15.3968 21.1492 15.3968 21.1492Z" fill="#1C1C1C"/>
</svg>
