<svg width="20" height="12" viewBox="0 0 20 12" fill="none" xmlns="http://www.w3.org/2000/svg">
<path fill-rule="evenodd" clip-rule="evenodd" d="M19.4454 6.24368C19.4454 6.24368 19.2686 6.62065 18.9078 7.16344C18.9078 7.16344 18.197 8.23292 17.2562 9.12426C17.2562 9.12426 14.2207 12 10 12C10 12 5.77933 12 2.74383 9.12426C2.74383 9.12426 1.80296 8.23291 1.09218 7.16344C1.09218 7.16344 0.731432 6.62065 0.554586 6.24368C0.481805 6.08854 0.481805 5.91146 0.554586 5.75632C0.554586 5.75632 0.731432 5.37936 1.09218 4.83656C1.09218 4.83656 1.80296 3.76709 2.74383 2.87574C2.74383 2.87574 5.77934 0 10 0C10 0 14.2207 0 17.2562 2.87574C17.2562 2.87574 18.197 3.76709 18.9078 4.83656C18.9078 4.83656 19.2686 5.37935 19.4454 5.75632C19.5182 5.91146 19.5182 6.08854 19.4454 6.24368ZM17.8359 6.52406C17.8359 6.52406 18.0328 6.22791 18.1611 6C18.1611 6 18.0328 5.7721 17.8359 5.47594C17.8359 5.47594 17.2009 4.5204 16.3605 3.72426C16.3605 3.72426 13.696 1.2 10 1.2C10 1.2 6.304 1.2 3.6395 3.72426C3.6395 3.72426 2.79913 4.52041 2.16407 5.47594C2.16407 5.47594 1.96725 5.77209 1.83894 6C1.83894 6 1.96725 6.22791 2.16407 6.52406C2.16407 6.52406 2.79913 7.47959 3.6395 8.27574C3.6395 8.27574 6.304 10.8 10 10.8C10 10.8 13.696 10.8 16.3605 8.27574C16.3605 8.27574 17.2009 7.4796 17.8359 6.52406Z" fill="#1C1C1C"/>
<path fill-rule="evenodd" clip-rule="evenodd" d="M10 2.4C10 2.4 11.574 2.4 12.687 3.45442C12.687 3.45442 13.8 4.50883 13.8 6C13.8 6 13.8 7.49117 12.687 8.54558C12.687 8.54558 11.574 9.6 10 9.6C10 9.6 8.42599 9.6 7.31299 8.54558C7.31299 8.54558 6.2 7.49117 6.2 6C6.2 6 6.2 4.50883 7.31299 3.45442C7.31299 3.45442 8.42599 2.4 10 2.4ZM10 3.6C10 3.6 8.95066 3.6 8.20866 4.30294C8.20866 4.30294 7.46667 5.00589 7.46667 6C7.46667 6 7.46667 6.99411 8.20866 7.69706C8.20866 7.69706 8.95066 8.4 10 8.4C10 8.4 11.0493 8.4 11.7913 7.69706C11.7913 7.69706 12.5333 6.99411 12.5333 6C12.5333 6 12.5333 5.00589 11.7913 4.30294C11.7913 4.30294 11.0493 3.6 10 3.6Z" fill="#1C1C1C"/>
</svg>
