<svg width="18" height="18" viewBox="0 0 18 18" fill="none" xmlns="http://www.w3.org/2000/svg">
<path fill-rule="evenodd" clip-rule="evenodd" d="M9 1.6875C9 1.6875 10.4873 1.6875 11.8465 2.26238C11.8465 2.26238 13.1589 2.81747 14.1707 3.82928C14.1707 3.82928 15.1825 4.84109 15.7376 6.15347C15.7376 6.15347 16.3125 7.51265 16.3125 9C16.3125 9 16.3125 10.4873 15.7376 11.8465C15.7376 11.8465 15.1825 13.1589 14.1707 14.1707C14.1707 14.1707 13.1589 15.1825 11.8465 15.7376C11.8465 15.7376 10.4873 16.3125 9 16.3125C9 16.3125 7.51265 16.3125 6.15347 15.7376C6.15347 15.7376 4.84109 15.1825 3.82928 14.1707C3.82928 14.1707 2.81747 13.1589 2.26238 11.8465C2.26238 11.8465 1.6875 10.4873 1.6875 9C1.6875 9 1.6875 7.51265 2.26238 6.15347C2.26238 6.15347 2.81748 4.84109 3.82928 3.82928C3.82928 3.82928 4.84109 2.81747 6.15347 2.26238C6.15347 2.26238 7.51265 1.6875 9 1.6875ZM9 2.8125C9 2.8125 7.74078 2.8125 6.59172 3.29851C6.59172 3.29851 5.48143 3.76813 4.62478 4.62478C4.62478 4.62478 3.76813 5.48143 3.29851 6.59172C3.29851 6.59172 2.8125 7.74078 2.8125 9C2.8125 9 2.8125 10.2592 3.29851 11.4083C3.29851 11.4083 3.76813 12.5186 4.62478 13.3752C4.62478 13.3752 5.48143 14.2319 6.59172 14.7015C6.59172 14.7015 7.74079 15.1875 9 15.1875C9 15.1875 10.2592 15.1875 11.4083 14.7015C11.4083 14.7015 12.5186 14.2319 13.3752 13.3752C13.3752 13.3752 14.2319 12.5186 14.7015 11.4083C14.7015 11.4083 15.1875 10.2592 15.1875 9C15.1875 9 15.1875 7.74079 14.7015 6.59172C14.7015 6.59172 14.2319 5.48143 13.3752 4.62478C13.3752 4.62478 12.5186 3.76813 11.4083 3.29851C11.4083 3.29851 10.2592 2.8125 9 2.8125Z" fill="#2600FF"/>
<path d="M8.5819 6.93621L6.05065 9.74871C5.95769 9.852 5.90625 9.98604 5.90625 10.125C5.90625 10.1349 5.90651 10.1447 5.90703 10.1546C5.91487 10.3035 5.98157 10.4433 6.09246 10.5431C6.19575 10.6361 6.32979 10.6875 6.46875 10.6875L6.4713 10.6875C6.48031 10.6875 6.48932 10.6872 6.49831 10.6867C6.64729 10.6789 6.78705 10.6122 6.88685 10.5013L9 8.15336L11.1129 10.501C11.2127 10.6119 11.3527 10.6789 11.5017 10.6867C11.5115 10.6872 11.5214 10.6875 11.5312 10.6875C11.5395 10.6875 11.5477 10.6873 11.556 10.687C11.6863 10.6812 11.8106 10.6304 11.9075 10.5431C12.0261 10.4364 12.0938 10.2845 12.0938 10.125C12.0938 10.1155 12.0935 10.1059 12.093 10.0964C12.0865 9.96745 12.0357 9.84468 11.9494 9.74871L9.4181 6.93621C9.40491 6.92155 9.39095 6.9076 9.37629 6.8944C9.14538 6.68658 8.78972 6.7053 8.5819 6.93621Z" fill="#2600FF"/>
</svg>
