<svg width="18" height="18" viewBox="0 0 18 18" fill="none" xmlns="http://www.w3.org/2000/svg">
<path fill-rule="evenodd" clip-rule="evenodd" d="M9 1.6875C9 1.6875 10.4873 1.6875 11.8465 2.26238C11.8465 2.26238 13.1589 2.81747 14.1707 3.82928C14.1707 3.82928 15.1825 4.84109 15.7376 6.15347C15.7376 6.15347 16.3125 7.51265 16.3125 9C16.3125 9 16.3125 10.4873 15.7376 11.8465C15.7376 11.8465 15.1825 13.1589 14.1707 14.1707C14.1707 14.1707 13.1589 15.1825 11.8465 15.7376C11.8465 15.7376 10.4873 16.3125 9 16.3125C9 16.3125 7.51265 16.3125 6.15347 15.7376C6.15347 15.7376 4.84109 15.1825 3.82928 14.1707C3.82928 14.1707 2.81747 13.1589 2.26238 11.8465C2.26238 11.8465 1.6875 10.4873 1.6875 9C1.6875 9 1.6875 7.51265 2.26238 6.15347C2.26238 6.15347 2.81748 4.84109 3.82928 3.82928C3.82928 3.82928 4.84109 2.81747 6.15347 2.26238C6.15347 2.26238 7.51265 1.6875 9 1.6875ZM9 2.8125C9 2.8125 7.74078 2.8125 6.59172 3.29851C6.59172 3.29851 5.48143 3.76813 4.62478 4.62478C4.62478 4.62478 3.76813 5.48143 3.29851 6.59172C3.29851 6.59172 2.8125 7.74078 2.8125 9C2.8125 9 2.8125 10.2592 3.29851 11.4083C3.29851 11.4083 3.76813 12.5186 4.62478 13.3752C4.62478 13.3752 5.48143 14.2319 6.59172 14.7015C6.59172 14.7015 7.74079 15.1875 9 15.1875C9 15.1875 10.2592 15.1875 11.4083 14.7015C11.4083 14.7015 12.5186 14.2319 13.3752 13.3752C13.3752 13.3752 14.2319 12.5186 14.7015 11.4083C14.7015 11.4083 15.1875 10.2592 15.1875 9C15.1875 9 15.1875 7.74079 14.7015 6.59172C14.7015 6.59172 14.2319 5.48143 13.3752 4.62478C13.3752 4.62478 12.5186 3.76813 11.4083 3.29851C11.4083 3.29851 10.2592 2.8125 9 2.8125Z" fill="#E93033"/>
<path d="M6.88685 7.77996C6.78018 7.66143 6.62821 7.59375 6.46875 7.59375C6.45921 7.59375 6.44967 7.59399 6.44014 7.59448C6.31119 7.60104 6.18843 7.65177 6.09246 7.73815C5.97393 7.84482 5.90625 7.99679 5.90625 8.15625C5.90625 8.16579 5.90649 8.17533 5.90698 8.18486C5.91354 8.31381 5.96427 8.43657 6.05065 8.53254L8.5819 11.345C8.78972 11.576 9.14538 11.5947 9.37629 11.3869C9.39095 11.3737 9.40491 11.3597 9.4181 11.345L11.9491 8.53285C12.042 8.42956 12.0937 8.29521 12.0938 8.15625C12.0938 8.14639 12.0935 8.13653 12.093 8.12669C12.0851 7.97771 12.0184 7.83795 11.9075 7.73815C11.8043 7.64519 11.6702 7.59375 11.5312 7.59375L11.5287 7.59376C11.5197 7.5938 11.5107 7.59405 11.5017 7.59453C11.3527 7.60237 11.2129 7.66907 11.1131 7.77996L9 10.1279L6.88685 7.77996Z" fill="#E93033"/>
</svg>
