<svg width="1172" height="272" viewBox="0 0 1172 272" fill="none" xmlns="http://www.w3.org/2000/svg">
<g clip-path="url(#clip0_27322_65083)">
<rect width="1172" height="272" rx="16" fill="#1C1C1C"/>
<g opacity="0.4">
<mask id="mask0_27322_65083" style="mask-type:alpha" maskUnits="userSpaceOnUse" x="419" y="-14" width="788" height="510">
<path d="M568.418 241C568.418 326.321 501.613 395.763 419.533 395.763L419.533 495.24C554.431 495.24 664.116 381.224 664.116 241C664.116 155.68 730.921 86.2372 813 86.2372C895.08 86.2372 961.884 155.68 961.884 241C961.7 381.224 1071.39 495.24 1206.28 495.24L1206.28 395.763C1124.2 395.763 1057.4 326.321 1057.4 241C1057.4 100.776 947.714 -13.2397 812.816 -13.2397C677.918 -13.2397 568.418 100.967 568.418 241Z" fill="url(#paint0_linear_27322_65083)"/>
</mask>
<g mask="url(#mask0_27322_65083)">
<g filter="url(#filter0_ii_27322_65083)">
<path d="M568.418 241C568.418 326.321 501.613 395.763 419.533 395.763L419.533 495.24C554.431 495.24 664.116 381.224 664.116 241C664.116 155.68 730.921 86.2372 813 86.2372C895.08 86.2372 961.884 155.68 961.884 241C961.7 381.224 1071.39 495.24 1206.28 495.24L1206.28 395.763C1124.2 395.763 1057.4 326.321 1057.4 241C1057.4 100.776 947.714 -13.2397 812.816 -13.2397C677.918 -13.2397 568.418 100.967 568.418 241Z" fill="url(#paint1_radial_27322_65083)"/>
<path d="M568.418 241C568.418 326.321 501.613 395.763 419.533 395.763L419.533 495.24C554.431 495.24 664.116 381.224 664.116 241C664.116 155.68 730.921 86.2372 813 86.2372C895.08 86.2372 961.884 155.68 961.884 241C961.7 381.224 1071.39 495.24 1206.28 495.24L1206.28 395.763C1124.2 395.763 1057.4 326.321 1057.4 241C1057.4 100.776 947.714 -13.2397 812.816 -13.2397C677.918 -13.2397 568.418 100.967 568.418 241Z" fill="#B5B5B5" fill-opacity="0.2"/>
</g>
</g>
<mask id="mask1_27322_65083" style="mask-type:alpha" maskUnits="userSpaceOnUse" x="419" y="-14" width="788" height="510">
<path d="M568.418 241C568.418 155.68 501.613 86.2372 419.533 86.2372L419.533 -13.2397C554.431 -13.2397 664.116 100.776 664.116 241C664.116 326.321 730.921 395.763 813 395.763C895.08 395.763 961.884 326.321 961.884 241C961.884 100.776 1071.57 -13.2397 1206.47 -13.2397L1206.47 86.2371C1124.39 86.2372 1057.58 155.68 1057.58 241C1057.4 381.224 947.714 495.24 812.816 495.24C677.918 495.24 568.418 381.224 568.418 241Z" fill="url(#paint2_linear_27322_65083)"/>
</mask>
<g mask="url(#mask1_27322_65083)">
<g filter="url(#filter1_ii_27322_65083)">
<path d="M568.418 241C568.418 155.68 501.613 86.2372 419.533 86.2372L419.533 -13.2397C554.431 -13.2397 664.116 100.776 664.116 241C664.116 326.321 730.921 395.763 813 395.763C895.08 395.763 961.884 326.321 961.884 241C961.884 100.776 1071.57 -13.2397 1206.47 -13.2397L1206.47 86.2371C1124.39 86.2372 1057.58 155.68 1057.58 241C1057.4 381.224 947.714 495.24 812.816 495.24C677.918 495.24 568.418 381.224 568.418 241Z" fill="url(#paint3_radial_27322_65083)"/>
<path d="M568.418 241C568.418 155.68 501.613 86.2372 419.533 86.2372L419.533 -13.2397C554.431 -13.2397 664.116 100.776 664.116 241C664.116 326.321 730.921 395.763 813 395.763C895.08 395.763 961.884 326.321 961.884 241C961.884 100.776 1071.57 -13.2397 1206.47 -13.2397L1206.47 86.2371C1124.39 86.2372 1057.58 155.68 1057.58 241C1057.4 381.224 947.714 495.24 812.816 495.24C677.918 495.24 568.418 381.224 568.418 241Z" fill="#B5B5B5" fill-opacity="0.2"/>
</g>
</g>
</g>
<circle cx="1084" cy="62.0003" r="3.78641" fill="#E5ECF6"/>
<path fill-rule="evenodd" clip-rule="evenodd" d="M1084 71.5922C1089.3 71.5922 1093.59 67.2976 1093.59 61.9999C1093.59 56.7023 1089.3 52.4077 1084 52.4077C1078.7 52.4077 1074.41 56.7023 1074.41 61.9999C1074.41 67.2976 1078.7 71.5922 1084 71.5922ZM1084 71.8446C1089.44 71.8446 1093.84 67.437 1093.84 61.9999C1093.84 56.5629 1089.44 52.1553 1084 52.1553C1078.56 52.1553 1074.16 56.5629 1074.16 61.9999C1074.16 67.437 1078.56 71.8446 1084 71.8446Z" fill="#E5ECF6"/>
<path fill-rule="evenodd" clip-rule="evenodd" d="M1084 76.5149C1092.02 76.5149 1098.51 70.0166 1098.51 62.0004C1098.51 53.9842 1092.02 47.4858 1084 47.4858C1075.98 47.4858 1069.49 53.9842 1069.49 62.0004C1069.49 70.0166 1075.98 76.5149 1084 76.5149ZM1084 76.7674C1092.16 76.7674 1098.77 70.156 1098.77 62.0004C1098.77 53.8448 1092.16 47.2334 1084 47.2334C1075.84 47.2334 1069.23 53.8448 1069.23 62.0004C1069.23 70.156 1075.84 76.7674 1084 76.7674Z" fill="#E5ECF6"/>
<path fill-rule="evenodd" clip-rule="evenodd" d="M1084 81.0584C1094.53 81.0584 1103.06 72.5257 1103.06 62.0001C1103.06 51.4746 1094.53 42.9419 1084 42.9419C1073.47 42.9419 1064.94 51.4746 1064.94 62.0001C1064.94 72.5257 1073.47 81.0584 1084 81.0584ZM1084 81.3108C1094.67 81.3108 1103.31 72.6651 1103.31 62.0001C1103.31 51.3351 1094.67 42.6895 1084 42.6895C1073.34 42.6895 1064.69 51.3351 1064.69 62.0001C1064.69 72.6651 1073.34 81.3108 1084 81.3108Z" fill="#E5ECF6"/>
<path fill-rule="evenodd" clip-rule="evenodd" d="M1084 85.9802C1097.24 85.9802 1107.98 75.2437 1107.98 61.9996C1107.98 48.7555 1097.24 38.019 1084 38.019C1070.76 38.019 1060.02 48.7555 1060.02 61.9996C1060.02 75.2437 1070.76 85.9802 1084 85.9802ZM1084 86.2326C1097.38 86.2326 1108.23 75.3831 1108.23 61.9996C1108.23 48.6161 1097.38 37.7666 1084 37.7666C1070.62 37.7666 1059.77 48.6161 1059.77 61.9996C1059.77 75.3831 1070.62 86.2326 1084 86.2326Z" fill="#E5ECF6"/>
<path fill-rule="evenodd" clip-rule="evenodd" d="M1084 90.903C1099.96 90.903 1112.9 77.9627 1112.9 62.0001C1112.9 46.0374 1099.96 33.0972 1084 33.0972C1068.04 33.0972 1055.1 46.0374 1055.1 62.0001C1055.1 77.9627 1068.04 90.903 1084 90.903ZM1084 91.1554C1100.1 91.1554 1113.16 78.1021 1113.16 62.0001C1113.16 45.898 1100.1 32.8447 1084 32.8447C1067.9 32.8447 1054.84 45.898 1054.84 62.0001C1054.84 78.1021 1067.9 91.1554 1084 91.1554Z" fill="#E5ECF6"/>
<path fill-rule="evenodd" clip-rule="evenodd" d="M1084 96.2041C1102.89 96.2041 1118.2 80.8905 1118.2 62.0003C1118.2 43.11 1102.89 27.7964 1084 27.7964C1065.11 27.7964 1049.8 43.11 1049.8 62.0003C1049.8 80.8905 1065.11 96.2041 1084 96.2041ZM1084 96.4566C1103.03 96.4566 1118.46 81.03 1118.46 62.0003C1118.46 42.9706 1103.03 27.5439 1084 27.5439C1064.97 27.5439 1049.54 42.9706 1049.54 62.0003C1049.54 81.03 1064.97 96.4566 1084 96.4566Z" fill="#E5ECF6"/>
<path fill-rule="evenodd" clip-rule="evenodd" d="M1084 100.748C1105.4 100.748 1122.75 83.3997 1122.75 62C1122.75 40.6003 1105.4 23.2524 1084 23.2524C1062.6 23.2524 1045.25 40.6003 1045.25 62C1045.25 83.3997 1062.6 100.748 1084 100.748ZM1084 101C1105.54 101 1123 83.5391 1123 62C1123 40.4609 1105.54 23 1084 23C1062.46 23 1045 40.4609 1045 62C1045 83.5391 1062.46 101 1084 101Z" fill="#E5ECF6"/>
<path d="M1085.73 38.1903C1085.73 39.1211 1084.98 39.8756 1084.04 39.8756C1083.11 39.8756 1082.36 39.1211 1082.36 38.1903C1082.36 37.2595 1083.11 36.5049 1084.04 36.5049C1084.98 36.5049 1085.73 37.2595 1085.73 38.1903Z" fill="#1C1C1C"/>
<path fill-rule="evenodd" clip-rule="evenodd" d="M1084.04 39.6232C1084.84 39.6232 1085.48 38.9817 1085.48 38.1903C1085.48 37.3989 1084.84 36.7573 1084.04 36.7573C1083.25 36.7573 1082.61 37.3989 1082.61 38.1903C1082.61 38.9817 1083.25 39.6232 1084.04 39.6232ZM1084.04 39.8756C1084.98 39.8756 1085.73 39.1211 1085.73 38.1903C1085.73 37.2595 1084.98 36.5049 1084.04 36.5049C1083.11 36.5049 1082.36 37.2595 1082.36 38.1903C1082.36 39.1211 1083.11 39.8756 1084.04 39.8756Z" fill="#E5ECF6"/>
<path d="M1099.74 65.578C1099.74 66.5088 1098.99 67.2633 1098.05 67.2633C1097.12 67.2633 1096.37 66.5088 1096.37 65.578C1096.37 64.6471 1097.12 63.8926 1098.05 63.8926C1098.99 63.8926 1099.74 64.6471 1099.74 65.578Z" fill="#1C1C1C"/>
<path fill-rule="evenodd" clip-rule="evenodd" d="M1098.05 67.0109C1098.85 67.0109 1099.49 66.3693 1099.49 65.578C1099.49 64.7866 1098.85 64.145 1098.05 64.145C1097.26 64.145 1096.62 64.7866 1096.62 65.578C1096.62 66.3693 1097.26 67.0109 1098.05 67.0109ZM1098.05 67.2633C1098.99 67.2633 1099.74 66.5088 1099.74 65.578C1099.74 64.6471 1098.99 63.8926 1098.05 63.8926C1097.12 63.8926 1096.37 64.6471 1096.37 65.578C1096.37 66.5088 1097.12 67.2633 1098.05 67.2633Z" fill="#E5ECF6"/>
<path d="M1056.57 61.035C1056.57 61.9658 1055.82 62.7204 1054.89 62.7204C1053.96 62.7204 1053.2 61.9658 1053.2 61.035C1053.2 60.1042 1053.96 59.3496 1054.89 59.3496C1055.82 59.3496 1056.57 60.1042 1056.57 61.035Z" fill="#1C1C1C"/>
<path fill-rule="evenodd" clip-rule="evenodd" d="M1054.89 62.4679C1055.68 62.4679 1056.32 61.8264 1056.32 61.035C1056.32 60.2436 1055.68 59.602 1054.89 59.602C1054.1 59.602 1053.46 60.2436 1053.46 61.035C1053.46 61.8264 1054.1 62.4679 1054.89 62.4679ZM1054.89 62.7204C1055.82 62.7204 1056.57 61.9658 1056.57 61.035C1056.57 60.1042 1055.82 59.3496 1054.89 59.3496C1053.96 59.3496 1053.2 60.1042 1053.2 61.035C1053.2 61.9658 1053.96 62.7204 1054.89 62.7204Z" fill="#E5ECF6"/>
<path d="M1119.18 69.744C1119.18 70.6748 1118.42 71.4293 1117.49 71.4293C1116.56 71.4293 1115.81 70.6748 1115.81 69.744C1115.81 68.8132 1116.56 68.0586 1117.49 68.0586C1118.42 68.0586 1119.18 68.8132 1119.18 69.744Z" fill="#1C1C1C"/>
<path fill-rule="evenodd" clip-rule="evenodd" d="M1117.49 71.1769C1118.28 71.1769 1118.92 70.5354 1118.92 69.744C1118.92 68.9526 1118.28 68.311 1117.49 68.311C1116.7 68.311 1116.06 68.9526 1116.06 69.744C1116.06 70.5354 1116.7 71.1769 1117.49 71.1769ZM1117.49 71.4293C1118.42 71.4293 1119.18 70.6748 1119.18 69.744C1119.18 68.8132 1118.42 68.0586 1117.49 68.0586C1116.56 68.0586 1115.81 68.8132 1115.81 69.744C1115.81 70.6748 1116.56 71.4293 1117.49 71.4293Z" fill="#E5ECF6"/>
<path fill-rule="evenodd" clip-rule="evenodd" d="M328 198.938L328 198.939V198.938L328 198.938L328 198.938V198.939L328 198.939L328 198.939V198.938C328.01 198.908 328.02 198.878 328.03 198.848C328.028 198.879 328.026 198.911 328.023 198.943L328.023 198.943L328.023 198.943L328.023 198.943L328.023 198.943L328.024 198.942C328.024 198.943 328.024 198.943 328.024 198.943L328.024 198.943L328.024 198.943C328.024 198.943 328.024 198.943 328.024 198.943L328.024 198.943L328.027 198.94C328.047 198.917 328.067 198.893 328.087 198.87C328.072 198.899 328.058 198.928 328.043 198.957L328.043 198.957L328.043 198.957L328.043 198.957L328.043 198.957L328.044 198.956L328.044 198.956L328.044 198.957L328.044 198.957L328.044 198.957L328.044 198.956L328.046 198.955C328.074 198.942 328.102 198.928 328.129 198.914C328.115 198.926 328.1 198.939 328.086 198.951L328.057 198.977L328.056 198.977L328.056 198.977L328.056 198.977L328.057 198.977L328.057 198.977L328.057 198.977C328.089 198.974 328.121 198.972 328.153 198.97C328.123 198.98 328.092 198.99 328.062 199H328.062L328.062 199L328.062 199H328.061L328.062 199L328.061 199H328.062C328.092 199.01 328.123 199.021 328.153 199.031C328.121 199.028 328.089 199.026 328.057 199.024L328.057 199.024L328.057 199.024L328.057 199.024L328.057 199.024L328.057 199.024L328.057 199.024L328.056 199.024L328.057 199.024C328.081 199.045 328.105 199.066 328.13 199.087L328.105 199.075C328.085 199.065 328.065 199.054 328.045 199.045L328.044 199.044L328.044 199.043L328.044 199.044L328.043 199.044L328.044 199.044L328.044 199.044L328.043 199.044L328.043 199.043L328.043 199.044L328.043 199.044L328.043 199.044C328.058 199.073 328.072 199.102 328.087 199.131C328.066 199.107 328.046 199.083 328.026 199.06L328.024 199.057L328.023 199.057L328.024 199.057L328.023 199.057L328.024 199.057L328.024 199.058L328.023 199.057L328.023 199.057L328.023 199.057L328.023 199.057L328.023 199.057C328.025 199.089 328.028 199.121 328.03 199.153C328.02 199.124 328.011 199.095 328.001 199.066L328 199.062V199.061L328 199.062L328 199.061V199.062L328 199.062L328 199.062V199.061L328 199.062L327.999 199.061V199.062L327.986 199.101C327.981 199.117 327.976 199.133 327.97 199.15C327.973 199.119 327.975 199.088 327.977 199.057L327.977 199.057L327.977 199.057L327.977 199.057L327.977 199.057L327.976 199.058L327.976 199.057L327.976 199.057L327.976 199.057L327.976 199.057L327.976 199.057L327.974 199.061C327.954 199.084 327.934 199.107 327.914 199.13C327.928 199.101 327.943 199.072 327.957 199.044L327.957 199.043L327.957 199.044L327.957 199.043L327.957 199.044L327.956 199.044L327.956 199.044L327.956 199.044L327.956 199.044L327.956 199.043L327.956 199.044L327.954 199.045C327.926 199.059 327.898 199.073 327.87 199.087C327.894 199.066 327.919 199.045 327.943 199.024L327.944 199.024L327.943 199.024L327.944 199.023L327.943 199.024L327.943 199.024L327.943 199.024C327.911 199.026 327.879 199.028 327.847 199.031L327.873 199.022C327.887 199.017 327.901 199.013 327.915 199.008L327.938 199H327.939L327.938 199L327.939 199H327.939L327.939 199L327.939 199H327.939C327.923 198.995 327.907 198.989 327.891 198.984C327.876 198.979 327.862 198.974 327.847 198.97C327.862 198.971 327.876 198.972 327.891 198.973C327.908 198.974 327.925 198.975 327.942 198.976L327.943 198.976L327.943 198.977L327.943 198.977L327.943 198.977L327.943 198.976L327.943 198.976L327.943 198.977L327.943 198.976L327.943 198.977L327.943 198.976C327.919 198.955 327.895 198.934 327.87 198.913C327.898 198.927 327.927 198.942 327.955 198.956L327.956 198.956L327.956 198.957L327.956 198.957L327.956 198.957L327.956 198.956L327.956 198.956L327.957 198.956L327.957 198.957L327.957 198.957L327.957 198.957L327.957 198.956C327.942 198.928 327.928 198.899 327.914 198.871C327.934 198.894 327.954 198.917 327.974 198.94L327.976 198.943L327.976 198.943L327.976 198.943L327.976 198.943L327.976 198.943L327.976 198.943L327.976 198.943L327.976 198.943L327.976 198.943L327.977 198.943L327.976 198.943C327.974 198.911 327.972 198.879 327.97 198.847C327.979 198.876 327.989 198.905 327.999 198.934L328 198.938V198.939L328 198.938ZM335.654 180.523C335.434 183.694 334.325 187.116 332.959 190.21C332.399 191.652 331.754 193.103 331.018 194.483C332.016 193.27 333.115 192.113 334.238 191.04C336.57 188.601 339.301 186.273 342.14 184.859L342.142 184.858L342.142 184.858L342.142 184.858L342.142 184.858L342.142 184.858L342.142 184.858L342.142 184.858L342.143 184.858L342.143 184.858L342.143 184.858L342.142 184.858C340.726 187.703 338.392 190.439 335.948 192.775C334.878 193.893 333.726 194.988 332.517 195.982C333.901 195.244 335.358 194.596 336.804 194.036C339.894 192.673 343.311 191.566 346.477 191.346L346.477 191.346L346.478 191.346L346.478 191.346L346.478 191.346L346.478 191.346L346.478 191.347C344.082 193.432 340.881 195.066 337.73 196.288C336.313 196.913 334.827 197.484 333.327 197.94C334.888 197.788 336.48 197.747 338.029 197.783C341.407 197.706 344.989 197.99 348 199H348L348 199L348 199H348L348 199L348 199H348C344.99 200.009 341.41 200.294 338.033 200.218C336.482 200.253 334.889 200.212 333.328 200.06C334.827 200.516 336.313 201.088 337.73 201.713C340.881 202.934 344.082 204.568 346.477 206.654L346.478 206.654L346.478 206.654L346.478 206.654L346.477 206.654L346.477 206.654L346.477 206.654L346.477 206.654L346.477 206.654C343.311 206.434 339.894 205.328 336.804 203.965C335.358 203.404 333.901 202.756 332.517 202.018C333.726 203.013 334.88 204.109 335.95 205.228C338.394 207.563 340.727 210.298 342.142 213.142L342.142 213.142L342.142 213.142L342.142 213.142L342.142 213.142L342.142 213.142L342.142 213.142L342.142 213.142L342.142 213.142L342.142 213.142L342.14 213.141C339.3 211.727 336.569 209.398 334.236 206.958C333.113 205.886 332.015 204.729 331.017 203.516C331.754 204.897 332.4 206.35 332.96 207.793C334.325 210.886 335.434 214.307 335.654 217.477L335.654 217.478L335.654 217.478L335.654 217.478L335.653 217.477L335.653 217.477L335.653 217.477L335.653 217.478L335.653 217.478L335.653 217.478L335.653 217.477L335.651 217.475C333.57 215.082 331.938 211.887 330.717 208.742C330.09 207.321 329.517 205.831 329.059 204.328C329.211 205.885 329.252 207.474 329.217 209.021C329.295 212.401 329.01 215.987 328 219V219L328 219L328 219V219L328 218.999L328 219V219L328 219L327.999 219V219L327.999 218.996C326.991 215.989 326.706 212.414 326.782 209.041C326.747 207.489 326.787 205.895 326.939 204.332C326.482 205.835 325.909 207.324 325.282 208.744C324.061 211.889 322.43 215.082 320.349 217.474L320.347 217.477L320.347 217.478L320.347 217.477L320.347 217.478L320.347 217.477L320.347 217.477L320.346 217.477L320.346 217.478L320.346 217.478L320.346 217.478L320.346 217.477C320.566 214.306 321.676 210.884 323.041 207.79C323.601 206.349 324.247 204.897 324.982 203.517C323.984 204.73 322.885 205.887 321.762 206.96C319.43 209.4 316.699 211.727 313.86 213.141L313.859 213.142L313.858 213.142L313.858 213.142L313.858 213.142L313.859 213.142L313.859 213.142L313.858 213.142L313.858 213.142L313.858 213.142L313.858 213.142L313.858 213.142C315.274 210.297 317.608 207.561 320.053 205.226C321.122 204.107 322.275 203.012 323.484 202.018C322.099 202.756 320.642 203.404 319.196 203.965C316.106 205.328 312.689 206.434 309.523 206.654L309.523 206.654L309.522 206.654L309.522 206.654L309.522 206.654L309.522 206.654L309.522 206.654C311.918 204.569 315.119 202.934 318.27 201.713C319.687 201.088 321.173 200.516 322.672 200.06C321.112 200.212 319.52 200.253 317.971 200.218C314.593 200.295 311.011 200.01 308 199H308L308 199L308 199H308L308 199L308 199H308.001C311.01 197.991 314.591 197.706 317.968 197.782C319.518 197.747 321.111 197.788 322.672 197.94C321.173 197.484 319.687 196.913 318.27 196.288C315.119 195.066 311.918 193.432 309.522 191.347L309.522 191.346L309.522 191.346L309.522 191.346L309.523 191.346L309.523 191.346L309.522 191.346L309.523 191.346L309.522 191.346L309.523 191.346L309.523 191.347C312.689 191.566 316.106 192.673 319.196 194.035C320.642 194.596 322.099 195.244 323.483 195.982C322.274 194.987 321.12 193.892 320.05 192.772C317.606 190.437 315.273 187.702 313.858 184.858L313.858 184.858L313.858 184.858L313.858 184.858L313.858 184.858L313.858 184.858L313.858 184.858L313.858 184.858L313.858 184.858L313.858 184.858L313.858 184.858L313.86 184.859C316.7 186.273 319.431 188.602 321.764 191.042C322.886 192.114 323.985 193.27 324.982 194.483C324.245 193.102 323.599 191.649 323.04 190.207C321.675 187.114 320.565 183.693 320.346 180.523L320.346 180.522L320.346 180.523L320.346 180.522L320.346 180.523L320.347 180.523L320.346 180.523L320.346 180.522L320.346 180.523L320.346 180.522L320.347 180.523L320.348 180.525C322.43 182.918 324.062 186.113 325.283 189.259C325.91 190.679 326.483 192.169 326.94 193.672C326.788 192.115 326.747 190.526 326.782 188.979C326.705 185.599 326.989 182.013 328 179V179L328 179L328 179V179L328 179.001L328 179.001V179L328 179L328 179V179.001L328.001 179.004C329.008 182.011 329.293 185.586 329.217 188.96C329.253 190.512 329.212 192.108 329.06 193.671C329.518 192.168 330.091 190.677 330.718 189.256C331.939 186.111 333.57 182.918 335.651 180.526C335.652 180.525 335.652 180.524 335.653 180.523L335.653 180.522L335.653 180.523L335.654 180.523L335.653 180.523L335.653 180.523C335.654 180.523 335.654 180.523 335.654 180.523L335.654 180.522C335.654 180.522 335.654 180.523 335.654 180.523C335.654 180.523 335.654 180.522 335.654 180.522L335.654 180.523Z" fill="white"/>
<path d="M327.672 195.731C327.706 195.329 328.295 195.329 328.328 195.731C328.355 196.061 328.797 196.149 328.948 195.855C329.133 195.496 329.677 195.721 329.554 196.106C329.453 196.421 329.828 196.671 330.08 196.457C330.388 196.196 330.805 196.613 330.544 196.921C330.33 197.173 330.58 197.547 330.895 197.447C331.28 197.323 331.505 197.868 331.146 198.052C330.852 198.204 330.94 198.645 331.269 198.673C331.672 198.706 331.672 199.295 331.269 199.328C330.94 199.356 330.852 199.797 331.146 199.949C331.505 200.133 331.28 200.678 330.895 200.554C330.58 200.454 330.33 200.828 330.544 201.08C330.805 201.388 330.388 201.805 330.08 201.544C329.828 201.33 329.453 201.58 329.554 201.895C329.677 202.28 329.133 202.505 328.948 202.146C328.797 201.852 328.355 201.94 328.328 202.27C328.295 202.672 327.706 202.672 327.672 202.27C327.645 201.94 327.203 201.852 327.052 202.146C326.867 202.505 326.323 202.28 326.446 201.895C326.547 201.58 326.173 201.33 325.921 201.544C325.612 201.805 325.196 201.388 325.457 201.08C325.671 200.828 325.42 200.454 325.106 200.554C324.721 200.678 324.496 200.133 324.855 199.949C325.149 199.797 325.061 199.356 324.731 199.328C324.329 199.295 324.329 198.706 324.731 198.673C325.061 198.645 325.149 198.204 324.855 198.052C324.496 197.868 324.721 197.323 325.106 197.447C325.42 197.547 325.671 197.173 325.457 196.921C325.196 196.613 325.612 196.196 325.921 196.457C326.173 196.671 326.547 196.421 326.446 196.106C326.323 195.721 326.867 195.496 327.052 195.855C327.203 196.149 327.645 196.061 327.672 195.731Z" fill="#F4B542"/>
<path d="M948 167.25C949.56 167.25 951.075 168.092 952.483 169.681C953.891 171.269 955.171 173.581 956.251 176.46C958.41 182.216 959.75 190.185 959.75 199C959.75 207.815 958.41 215.784 956.251 221.54C955.171 224.419 953.891 226.731 952.483 228.319C951.075 229.908 949.56 230.75 948 230.75C946.44 230.75 944.925 229.908 943.517 228.319C942.109 226.731 940.829 224.419 939.749 221.54C937.59 215.784 936.25 207.815 936.25 199C936.25 190.185 937.59 182.216 939.749 176.46C940.829 173.581 942.109 171.269 943.517 169.681C944.925 168.092 946.44 167.25 948 167.25Z" stroke="url(#paint4_linear_27322_65083)" stroke-width="0.5"/>
<path d="M948 187.25C956.815 187.25 964.784 188.59 970.54 190.749C973.419 191.829 975.731 193.109 977.319 194.517C978.908 195.925 979.75 197.44 979.75 199C979.75 200.56 978.908 202.075 977.319 203.483C975.731 204.891 973.419 206.171 970.54 207.251C964.784 209.41 956.815 210.75 948 210.75C939.185 210.75 931.216 209.41 925.46 207.251C922.581 206.171 920.269 204.891 918.681 203.483C917.092 202.075 916.25 200.56 916.25 199C916.25 197.44 917.092 195.925 918.681 194.517C920.269 193.109 922.581 191.829 925.46 190.749C931.216 188.59 939.185 187.25 948 187.25Z" stroke="url(#paint5_linear_27322_65083)" stroke-width="0.5"/>
<path d="M925.549 176.549C926.652 175.446 928.32 174.97 930.439 175.098C932.557 175.225 935.098 175.955 937.897 177.228C943.318 179.692 949.665 184.168 955.723 190.111L956.309 190.691C962.542 196.924 967.229 203.507 969.773 209.104C971.045 211.903 971.775 214.443 971.903 216.562C972.03 218.681 971.553 220.347 970.45 221.45C969.348 222.553 967.681 223.03 965.562 222.902C963.443 222.775 960.903 222.045 958.104 220.772C952.682 218.308 946.335 213.832 940.277 207.888L939.692 207.309C933.459 201.076 928.772 194.493 926.228 188.896C924.955 186.097 924.225 183.557 924.098 181.438C923.978 179.452 924.389 177.862 925.35 176.763L925.549 176.549Z" stroke="url(#paint6_linear_27322_65083)" stroke-width="0.5"/>
<path d="M965.562 175.098C967.548 174.978 969.138 175.389 970.238 176.35L970.45 176.549C971.553 177.652 972.03 179.319 971.903 181.438C971.775 183.557 971.045 186.097 969.773 188.896C967.229 194.493 962.542 201.076 956.309 207.309C950.076 213.541 943.493 218.229 937.897 220.772C935.098 222.045 932.557 222.775 930.439 222.902C928.452 223.022 926.863 222.61 925.763 221.649L925.549 221.45C924.446 220.347 923.971 218.68 924.098 216.562C924.225 214.443 924.955 211.903 926.228 209.104C928.692 203.682 933.168 197.334 939.112 191.276L939.692 190.691C945.924 184.459 952.507 179.771 958.104 177.228C960.903 175.955 963.443 175.225 965.562 175.098Z" stroke="url(#paint7_linear_27322_65083)" stroke-width="0.5"/>
<path fill-rule="evenodd" clip-rule="evenodd" d="M121.219 159L122.5 121L123.781 159L138.644 124.031L126.17 159.929L152.608 132.714L128.064 161.663L162.505 145.876L129.206 163.966L167 161.741L129.442 166.528L165.485 178.165L128.741 169.003L158.164 192.93L127.197 171.056L146.027 204.042L125.018 172.411L130.712 210L122.5 172.884L114.288 210L119.982 172.411L98.9734 204.042L117.803 171.056L86.8361 192.93L116.259 169.003L79.5154 178.165L115.558 166.528L78 161.741L115.794 163.966L82.4946 145.876L116.936 161.663L92.3921 132.714L118.83 159.929L106.356 124.031L121.219 159ZM120.255 160.061L118.312 161.269L116.936 163.1L116.311 165.306L116.521 167.59L117.54 169.644L119.228 171.19L121.358 172.018H123.642L125.772 171.19L127.46 169.644L128.479 167.59L128.689 165.306L128.064 163.1L126.688 161.269L124.745 160.061L122.5 159.64L120.255 160.061Z" fill="#F7F9FB"/>
<path d="M411.235 169.688C411.076 168.199 410.406 167.04 409.224 166.21C408.053 165.381 406.531 164.966 404.656 164.966C403.337 164.966 402.207 165.165 401.263 165.562C400.32 165.96 399.599 166.5 399.099 167.182C398.599 167.864 398.343 168.642 398.332 169.517C398.332 170.244 398.496 170.875 398.826 171.409C399.167 171.943 399.627 172.398 400.207 172.773C400.786 173.136 401.428 173.443 402.133 173.693C402.837 173.943 403.548 174.153 404.263 174.324L407.536 175.142C408.854 175.449 410.121 175.864 411.337 176.386C412.565 176.909 413.661 177.568 414.627 178.364C415.604 179.159 416.377 180.119 416.945 181.244C417.513 182.369 417.798 183.687 417.798 185.199C417.798 187.244 417.275 189.045 416.229 190.602C415.184 192.148 413.673 193.358 411.695 194.233C409.729 195.097 407.349 195.528 404.553 195.528C401.837 195.528 399.479 195.108 397.479 194.267C395.491 193.426 393.934 192.199 392.809 190.585C391.695 188.972 391.093 187.006 391.002 184.688H397.224C397.315 185.903 397.69 186.915 398.349 187.722C399.008 188.528 399.866 189.131 400.923 189.528C401.991 189.926 403.184 190.125 404.502 190.125C405.877 190.125 407.082 189.92 408.116 189.511C409.161 189.091 409.979 188.511 410.57 187.773C411.161 187.023 411.462 186.148 411.474 185.148C411.462 184.239 411.195 183.489 410.673 182.898C410.15 182.295 409.417 181.795 408.474 181.398C407.542 180.989 406.451 180.625 405.201 180.307L401.229 179.284C398.354 178.545 396.082 177.426 394.411 175.926C392.752 174.415 391.923 172.409 391.923 169.909C391.923 167.852 392.479 166.051 393.593 164.506C394.718 162.96 396.246 161.761 398.178 160.909C400.11 160.045 402.298 159.614 404.741 159.614C407.218 159.614 409.388 160.045 411.252 160.909C413.127 161.761 414.599 162.949 415.667 164.472C416.735 165.983 417.286 167.722 417.32 169.688H411.235ZM436.237 168.818V173.591H421.185V168.818H436.237ZM424.901 162.545H431.072V187.125C431.072 187.955 431.197 188.591 431.447 189.034C431.708 189.466 432.049 189.761 432.469 189.92C432.89 190.08 433.356 190.159 433.867 190.159C434.254 190.159 434.606 190.131 434.924 190.074C435.254 190.017 435.504 189.966 435.674 189.92L436.714 194.744C436.384 194.858 435.913 194.983 435.299 195.119C434.697 195.256 433.958 195.335 433.083 195.358C431.538 195.403 430.146 195.17 428.907 194.659C427.668 194.136 426.685 193.33 425.958 192.239C425.242 191.148 424.89 189.784 424.901 188.148V162.545ZM458.085 183.989V168.818H464.255V195H458.272V190.347H457.999C457.408 191.812 456.437 193.011 455.085 193.943C453.744 194.875 452.09 195.341 450.124 195.341C448.408 195.341 446.891 194.96 445.573 194.199C444.266 193.426 443.244 192.307 442.505 190.841C441.766 189.364 441.397 187.58 441.397 185.489V168.818H447.567V184.534C447.567 186.193 448.022 187.511 448.931 188.489C449.84 189.466 451.033 189.955 452.511 189.955C453.42 189.955 454.3 189.733 455.153 189.29C456.005 188.847 456.704 188.188 457.249 187.312C457.806 186.426 458.085 185.318 458.085 183.989ZM480.316 195.46C478.259 195.46 476.418 194.932 474.793 193.875C473.168 192.818 471.884 191.284 470.941 189.273C469.998 187.261 469.526 184.818 469.526 181.943C469.526 179.034 470.004 176.58 470.958 174.58C471.924 172.568 473.225 171.051 474.862 170.028C476.498 168.994 478.322 168.477 480.333 168.477C481.867 168.477 483.129 168.739 484.117 169.261C485.106 169.773 485.89 170.392 486.469 171.119C487.049 171.835 487.498 172.511 487.816 173.148H488.072V160.091H494.259V195H488.191V190.875H487.816C487.498 191.511 487.038 192.187 486.435 192.903C485.833 193.608 485.038 194.21 484.049 194.71C483.06 195.21 481.816 195.46 480.316 195.46ZM482.038 190.398C483.344 190.398 484.458 190.045 485.379 189.341C486.299 188.625 486.998 187.631 487.475 186.358C487.952 185.085 488.191 183.602 488.191 181.909C488.191 180.216 487.952 178.744 487.475 177.494C487.009 176.244 486.316 175.273 485.396 174.58C484.487 173.886 483.367 173.54 482.038 173.54C480.663 173.54 479.515 173.898 478.594 174.614C477.674 175.33 476.981 176.318 476.515 177.58C476.049 178.841 475.816 180.284 475.816 181.909C475.816 183.545 476.049 185.006 476.515 186.29C476.992 187.562 477.691 188.568 478.612 189.307C479.543 190.034 480.685 190.398 482.038 190.398ZM512.425 195.511C509.8 195.511 507.533 194.966 505.624 193.875C503.727 192.773 502.266 191.216 501.244 189.205C500.221 187.182 499.71 184.801 499.71 182.062C499.71 179.369 500.221 177.006 501.244 174.972C502.278 172.926 503.721 171.335 505.573 170.199C507.425 169.051 509.602 168.477 512.102 168.477C513.715 168.477 515.238 168.739 516.67 169.261C518.113 169.773 519.386 170.568 520.488 171.648C521.602 172.727 522.477 174.102 523.113 175.773C523.749 177.432 524.067 179.409 524.067 181.705V183.597H502.607V179.438H518.153C518.141 178.256 517.886 177.205 517.386 176.284C516.886 175.352 516.187 174.619 515.289 174.085C514.403 173.551 513.369 173.284 512.187 173.284C510.925 173.284 509.817 173.591 508.863 174.205C507.908 174.807 507.164 175.602 506.63 176.591C506.107 177.568 505.84 178.642 505.829 179.812V183.443C505.829 184.966 506.107 186.273 506.664 187.364C507.221 188.443 507.999 189.273 508.999 189.852C509.999 190.42 511.17 190.705 512.511 190.705C513.408 190.705 514.221 190.58 514.948 190.33C515.675 190.068 516.306 189.688 516.84 189.188C517.374 188.688 517.778 188.068 518.05 187.33L523.812 187.977C523.448 189.5 522.755 190.83 521.732 191.966C520.721 193.091 519.425 193.966 517.846 194.591C516.266 195.205 514.46 195.511 512.425 195.511ZM535.458 179.659V195H529.288V168.818H535.185V173.267H535.492C536.094 171.801 537.055 170.636 538.373 169.773C539.702 168.909 541.344 168.477 543.299 168.477C545.106 168.477 546.68 168.864 548.021 169.636C549.373 170.409 550.418 171.528 551.157 172.994C551.907 174.46 552.276 176.239 552.265 178.33V195H546.094V179.284C546.094 177.534 545.64 176.165 544.731 175.176C543.833 174.187 542.589 173.693 540.998 173.693C539.918 173.693 538.958 173.932 538.117 174.409C537.288 174.875 536.634 175.551 536.157 176.438C535.691 177.324 535.458 178.398 535.458 179.659ZM571.612 168.818V173.591H556.56V168.818H571.612ZM560.276 162.545H566.447V187.125C566.447 187.955 566.572 188.591 566.822 189.034C567.083 189.466 567.424 189.761 567.844 189.92C568.265 190.08 568.731 190.159 569.242 190.159C569.629 190.159 569.981 190.131 570.299 190.074C570.629 190.017 570.879 189.966 571.049 189.92L572.089 194.744C571.759 194.858 571.288 194.983 570.674 195.119C570.072 195.256 569.333 195.335 568.458 195.358C566.913 195.403 565.521 195.17 564.282 194.659C563.043 194.136 562.06 193.33 561.333 192.239C560.617 191.148 560.265 189.784 560.276 188.148V162.545ZM588.951 195V160.091H602.042C604.724 160.091 606.974 160.591 608.792 161.591C610.621 162.591 612.002 163.966 612.934 165.716C613.877 167.455 614.349 169.432 614.349 171.648C614.349 173.886 613.877 175.875 612.934 177.614C611.991 179.352 610.599 180.722 608.758 181.722C606.917 182.71 604.65 183.205 601.957 183.205H593.281V178.006H601.104C602.673 178.006 603.957 177.733 604.957 177.188C605.957 176.642 606.695 175.892 607.173 174.938C607.661 173.983 607.906 172.886 607.906 171.648C607.906 170.409 607.661 169.318 607.173 168.375C606.695 167.432 605.951 166.699 604.94 166.176C603.94 165.642 602.65 165.375 601.07 165.375H595.275V195H588.951ZM630.614 195.511C628.058 195.511 625.842 194.949 623.967 193.824C622.092 192.699 620.637 191.125 619.603 189.102C618.58 187.08 618.069 184.716 618.069 182.011C618.069 179.307 618.58 176.937 619.603 174.903C620.637 172.869 622.092 171.29 623.967 170.165C625.842 169.04 628.058 168.477 630.614 168.477C633.171 168.477 635.387 169.04 637.262 170.165C639.137 171.29 640.586 172.869 641.609 174.903C642.643 176.937 643.16 179.307 643.16 182.011C643.16 184.716 642.643 187.08 641.609 189.102C640.586 191.125 639.137 192.699 637.262 193.824C635.387 194.949 633.171 195.511 630.614 195.511ZM630.648 190.568C632.035 190.568 633.194 190.187 634.126 189.426C635.058 188.653 635.751 187.619 636.205 186.324C636.671 185.028 636.904 183.585 636.904 181.994C636.904 180.392 636.671 178.943 636.205 177.648C635.751 176.341 635.058 175.301 634.126 174.528C633.194 173.756 632.035 173.369 630.648 173.369C629.228 173.369 628.046 173.756 627.103 174.528C626.171 175.301 625.472 176.341 625.006 177.648C624.552 178.943 624.325 180.392 624.325 181.994C624.325 183.585 624.552 185.028 625.006 186.324C625.472 187.619 626.171 188.653 627.103 189.426C628.046 190.187 629.228 190.568 630.648 190.568ZM648.397 195V168.818H654.38V173.182H654.653C655.13 171.67 655.948 170.506 657.107 169.688C658.278 168.858 659.613 168.443 661.113 168.443C661.454 168.443 661.835 168.46 662.255 168.494C662.687 168.517 663.045 168.557 663.329 168.614V174.29C663.067 174.199 662.653 174.119 662.085 174.051C661.528 173.972 660.988 173.932 660.465 173.932C659.34 173.932 658.329 174.176 657.431 174.665C656.545 175.142 655.846 175.807 655.335 176.659C654.823 177.511 654.567 178.494 654.567 179.608V195H648.397ZM681.908 168.818V173.591H666.857V168.818H681.908ZM670.573 162.545H676.744V187.125C676.744 187.955 676.869 188.591 677.119 189.034C677.38 189.466 677.721 189.761 678.141 189.92C678.562 190.08 679.028 190.159 679.539 190.159C679.925 190.159 680.278 190.131 680.596 190.074C680.925 190.017 681.175 189.966 681.346 189.92L682.386 194.744C682.056 194.858 681.585 194.983 680.971 195.119C680.369 195.256 679.63 195.335 678.755 195.358C677.21 195.403 675.817 195.17 674.579 194.659C673.34 194.136 672.357 193.33 671.63 192.239C670.914 191.148 670.562 189.784 670.573 188.148V162.545ZM696.504 195.46C694.447 195.46 692.606 194.932 690.981 193.875C689.356 192.818 688.072 191.284 687.129 189.273C686.185 187.261 685.714 184.818 685.714 181.943C685.714 179.034 686.191 176.58 687.146 174.58C688.112 172.568 689.413 171.051 691.049 170.028C692.685 168.994 694.509 168.477 696.521 168.477C698.055 168.477 699.316 168.739 700.305 169.261C701.293 169.773 702.077 170.392 702.657 171.119C703.237 171.835 703.685 172.511 704.004 173.148H704.259V168.818H710.447V195H704.379V190.875H704.004C703.685 191.511 703.225 192.187 702.623 192.903C702.021 193.608 701.225 194.21 700.237 194.71C699.248 195.21 698.004 195.46 696.504 195.46ZM698.225 190.398C699.532 190.398 700.646 190.045 701.566 189.341C702.487 188.625 703.185 187.631 703.663 186.358C704.14 185.085 704.379 183.602 704.379 181.909C704.379 180.216 704.14 178.744 703.663 177.494C703.197 176.244 702.504 175.273 701.583 174.58C700.674 173.886 699.555 173.54 698.225 173.54C696.85 173.54 695.702 173.898 694.782 174.614C693.862 175.33 693.168 176.318 692.702 177.58C692.237 178.841 692.004 180.284 692.004 181.909C692.004 183.545 692.237 185.006 692.702 186.29C693.18 187.562 693.879 188.568 694.799 189.307C695.731 190.034 696.873 190.398 698.225 190.398ZM723.192 160.091V195H717.022V160.091H723.192ZM746.2 195H739.45L751.739 160.091H759.546L771.853 195H765.103L755.779 167.25H755.506L746.2 195ZM746.421 181.312H764.83V186.392H746.421V181.312ZM782.775 160.091V195H776.451V160.091H782.775Z" fill="white"/>
<path d="M458.083 219.273H459.14V225.051C459.14 225.648 458.999 226.18 458.718 226.649C458.439 227.115 458.046 227.483 457.537 227.753C457.029 228.02 456.432 228.153 455.748 228.153C455.063 228.153 454.466 228.02 453.958 227.753C453.449 227.483 453.055 227.115 452.773 226.649C452.495 226.18 452.356 225.648 452.356 225.051V219.273H453.412V224.966C453.412 225.392 453.506 225.771 453.694 226.104C453.881 226.433 454.148 226.693 454.495 226.884C454.844 227.071 455.262 227.165 455.748 227.165C456.233 227.165 456.651 227.071 457.001 226.884C457.35 226.693 457.617 226.433 457.802 226.104C457.989 225.771 458.083 225.392 458.083 224.966V219.273ZM461.114 230.455V221.455H462.085V222.494H462.205C462.279 222.381 462.381 222.236 462.512 222.06C462.645 221.881 462.835 221.722 463.083 221.582C463.333 221.44 463.671 221.369 464.097 221.369C464.648 221.369 465.134 221.507 465.554 221.783C465.975 222.058 466.303 222.449 466.539 222.955C466.774 223.46 466.892 224.057 466.892 224.744C466.892 225.438 466.774 226.038 466.539 226.547C466.303 227.053 465.976 227.445 465.558 227.723C465.141 227.999 464.659 228.136 464.114 228.136C463.693 228.136 463.357 228.067 463.104 227.928C462.851 227.786 462.656 227.625 462.52 227.446C462.384 227.264 462.279 227.114 462.205 226.994H462.119V230.455H461.114ZM462.102 224.727C462.102 225.222 462.175 225.658 462.32 226.036C462.465 226.411 462.676 226.705 462.955 226.918C463.233 227.128 463.574 227.233 463.977 227.233C464.398 227.233 464.749 227.122 465.03 226.901C465.314 226.676 465.527 226.375 465.669 225.997C465.814 225.616 465.887 225.193 465.887 224.727C465.887 224.267 465.816 223.852 465.673 223.483C465.534 223.111 465.323 222.817 465.039 222.601C464.757 222.382 464.404 222.273 463.977 222.273C463.568 222.273 463.225 222.376 462.946 222.584C462.668 222.788 462.458 223.075 462.316 223.445C462.173 223.811 462.102 224.239 462.102 224.727ZM469.432 219.273V228H468.426V219.273H469.432ZM473.933 228.136C473.342 228.136 472.824 227.996 472.378 227.714C471.934 227.433 471.588 227.04 471.338 226.534C471.091 226.028 470.967 225.437 470.967 224.761C470.967 224.08 471.091 223.484 471.338 222.976C471.588 222.467 471.934 222.072 472.378 221.791C472.824 221.51 473.342 221.369 473.933 221.369C474.524 221.369 475.041 221.51 475.484 221.791C475.93 222.072 476.277 222.467 476.524 222.976C476.774 223.484 476.899 224.08 476.899 224.761C476.899 225.437 476.774 226.028 476.524 226.534C476.277 227.04 475.93 227.433 475.484 227.714C475.041 227.996 474.524 228.136 473.933 228.136ZM473.933 227.233C474.382 227.233 474.751 227.118 475.041 226.888C475.331 226.658 475.545 226.355 475.684 225.98C475.824 225.605 475.893 225.199 475.893 224.761C475.893 224.324 475.824 223.916 475.684 223.538C475.545 223.161 475.331 222.855 475.041 222.622C474.751 222.389 474.382 222.273 473.933 222.273C473.484 222.273 473.115 222.389 472.825 222.622C472.535 222.855 472.321 223.161 472.182 223.538C472.042 223.916 471.973 224.324 471.973 224.761C471.973 225.199 472.042 225.605 472.182 225.98C472.321 226.355 472.535 226.658 472.825 226.888C473.115 227.118 473.484 227.233 473.933 227.233ZM480.906 228.136C480.36 228.136 479.879 227.999 479.461 227.723C479.044 227.445 478.717 227.053 478.481 226.547C478.245 226.038 478.127 225.438 478.127 224.744C478.127 224.057 478.245 223.46 478.481 222.955C478.717 222.449 479.045 222.058 479.465 221.783C479.886 221.507 480.372 221.369 480.923 221.369C481.349 221.369 481.686 221.44 481.933 221.582C482.183 221.722 482.373 221.881 482.504 222.06C482.637 222.236 482.741 222.381 482.815 222.494H482.9V221.455H483.906V228H482.934V226.994H482.815C482.741 227.114 482.636 227.264 482.499 227.446C482.363 227.625 482.169 227.786 481.916 227.928C481.663 228.067 481.326 228.136 480.906 228.136ZM481.042 227.233C481.445 227.233 481.786 227.128 482.065 226.918C482.343 226.705 482.555 226.411 482.7 226.036C482.845 225.658 482.917 225.222 482.917 224.727C482.917 224.239 482.846 223.811 482.704 223.445C482.562 223.075 482.352 222.788 482.073 222.584C481.795 222.376 481.451 222.273 481.042 222.273C480.616 222.273 480.261 222.382 479.977 222.601C479.695 222.817 479.484 223.111 479.342 223.483C479.203 223.852 479.133 224.267 479.133 224.727C479.133 225.193 479.204 225.616 479.346 225.997C479.491 226.375 479.704 226.676 479.985 226.901C480.269 227.122 480.622 227.233 481.042 227.233ZM488.359 228.136C487.813 228.136 487.332 227.999 486.914 227.723C486.497 227.445 486.17 227.053 485.934 226.547C485.698 226.038 485.58 225.438 485.58 224.744C485.58 224.057 485.698 223.46 485.934 222.955C486.17 222.449 486.498 222.058 486.919 221.783C487.339 221.507 487.825 221.369 488.376 221.369C488.802 221.369 489.139 221.44 489.386 221.582C489.636 221.722 489.826 221.881 489.957 222.06C490.09 222.236 490.194 222.381 490.268 222.494H490.353V219.273H491.359V228H490.387V226.994H490.268C490.194 227.114 490.089 227.264 489.953 227.446C489.816 227.625 489.622 227.786 489.369 227.928C489.116 228.067 488.779 228.136 488.359 228.136ZM488.495 227.233C488.899 227.233 489.24 227.128 489.518 226.918C489.796 226.705 490.008 226.411 490.153 226.036C490.298 225.658 490.37 225.222 490.37 224.727C490.37 224.239 490.299 223.811 490.157 223.445C490.015 223.075 489.805 222.788 489.526 222.584C489.248 222.376 488.904 222.273 488.495 222.273C488.069 222.273 487.714 222.382 487.43 222.601C487.149 222.817 486.937 223.111 486.795 223.483C486.656 223.852 486.586 224.267 486.586 224.727C486.586 225.193 486.657 225.616 486.799 225.997C486.944 226.375 487.157 226.676 487.438 226.901C487.722 227.122 488.075 227.233 488.495 227.233ZM499.562 221.455V222.307H496.17V221.455H499.562ZM497.159 219.886H498.164V226.125C498.164 226.409 498.205 226.622 498.288 226.764C498.373 226.903 498.481 226.997 498.612 227.045C498.745 227.091 498.886 227.114 499.034 227.114C499.144 227.114 499.235 227.108 499.306 227.097C499.377 227.082 499.434 227.071 499.477 227.062L499.681 227.966C499.613 227.991 499.518 228.017 499.396 228.043C499.274 228.071 499.119 228.085 498.931 228.085C498.647 228.085 498.369 228.024 498.096 227.902C497.826 227.78 497.602 227.594 497.423 227.344C497.247 227.094 497.159 226.778 497.159 226.398V219.886ZM502.221 224.062V228H501.215V219.273H502.221V222.477H502.306C502.46 222.139 502.69 221.871 502.997 221.672C503.306 221.47 503.718 221.369 504.232 221.369C504.678 221.369 505.069 221.459 505.404 221.638C505.74 221.814 505.999 222.085 506.184 222.452C506.372 222.815 506.465 223.278 506.465 223.841V228H505.46V223.909C505.46 223.389 505.325 222.987 505.055 222.703C504.788 222.416 504.417 222.273 503.943 222.273C503.613 222.273 503.318 222.342 503.056 222.482C502.798 222.621 502.593 222.824 502.443 223.091C502.295 223.358 502.221 223.682 502.221 224.062ZM511.05 228.136C510.419 228.136 509.875 227.997 509.417 227.719C508.963 227.438 508.612 227.045 508.365 226.543C508.121 226.037 507.998 225.449 507.998 224.778C507.998 224.108 508.121 223.517 508.365 223.006C508.612 222.491 508.956 222.091 509.396 221.804C509.839 221.514 510.356 221.369 510.947 221.369C511.288 221.369 511.625 221.426 511.957 221.54C512.29 221.653 512.592 221.838 512.865 222.094C513.138 222.347 513.355 222.682 513.517 223.099C513.679 223.517 513.76 224.031 513.76 224.642V225.068H508.714V224.199H512.737C512.737 223.83 512.663 223.5 512.515 223.21C512.371 222.92 512.163 222.692 511.893 222.524C511.626 222.357 511.311 222.273 510.947 222.273C510.547 222.273 510.2 222.372 509.907 222.571C509.618 222.767 509.395 223.023 509.238 223.338C509.082 223.653 509.004 223.991 509.004 224.352V224.932C509.004 225.426 509.089 225.845 509.26 226.189C509.433 226.53 509.673 226.79 509.98 226.969C510.287 227.145 510.643 227.233 511.05 227.233C511.314 227.233 511.552 227.196 511.765 227.122C511.981 227.045 512.167 226.932 512.324 226.781C512.48 226.628 512.601 226.437 512.686 226.21L513.657 226.483C513.555 226.812 513.383 227.102 513.142 227.352C512.9 227.599 512.602 227.793 512.247 227.932C511.892 228.068 511.493 228.136 511.05 228.136ZM519.67 224.062V228H518.665V221.455H519.636V222.477H519.721C519.875 222.145 520.108 221.878 520.42 221.676C520.733 221.472 521.136 221.369 521.631 221.369C522.074 221.369 522.461 221.46 522.794 221.642C523.126 221.821 523.385 222.094 523.569 222.46C523.754 222.824 523.846 223.284 523.846 223.841V228H522.841V223.909C522.841 223.395 522.707 222.994 522.44 222.707C522.173 222.418 521.807 222.273 521.341 222.273C521.02 222.273 520.733 222.342 520.48 222.482C520.23 222.621 520.032 222.824 519.888 223.091C519.743 223.358 519.67 223.682 519.67 224.062ZM528.428 228.136C527.798 228.136 527.254 227.997 526.796 227.719C526.342 227.438 525.991 227.045 525.744 226.543C525.499 226.037 525.377 225.449 525.377 224.778C525.377 224.108 525.499 223.517 525.744 223.006C525.991 222.491 526.335 222.091 526.775 221.804C527.218 221.514 527.735 221.369 528.326 221.369C528.667 221.369 529.004 221.426 529.336 221.54C529.669 221.653 529.971 221.838 530.244 222.094C530.517 222.347 530.734 222.682 530.896 223.099C531.058 223.517 531.139 224.031 531.139 224.642V225.068H526.093V224.199H530.116C530.116 223.83 530.042 223.5 529.894 223.21C529.749 222.92 529.542 222.692 529.272 222.524C529.005 222.357 528.69 222.273 528.326 222.273C527.926 222.273 527.579 222.372 527.286 222.571C526.997 222.767 526.774 223.023 526.617 223.338C526.461 223.653 526.383 223.991 526.383 224.352V224.932C526.383 225.426 526.468 225.845 526.639 226.189C526.812 226.53 527.052 226.79 527.359 226.969C527.666 227.145 528.022 227.233 528.428 227.233C528.693 227.233 528.931 227.196 529.144 227.122C529.36 227.045 529.546 226.932 529.703 226.781C529.859 226.628 529.98 226.437 530.065 226.21L531.036 226.483C530.934 226.812 530.762 227.102 530.521 227.352C530.279 227.599 529.981 227.793 529.626 227.932C529.271 228.068 528.872 228.136 528.428 228.136ZM534.151 228L532.157 221.455H533.214L534.629 226.466H534.697L536.095 221.455H537.169L538.549 226.449H538.617L540.032 221.455H541.089L539.095 228H538.106L536.674 222.972H536.572L535.14 228H534.151ZM548.265 228.136C547.72 228.136 547.238 227.999 546.82 227.723C546.403 227.445 546.076 227.053 545.84 226.547C545.605 226.038 545.487 225.438 545.487 224.744C545.487 224.057 545.605 223.46 545.84 222.955C546.076 222.449 546.404 222.058 546.825 221.783C547.245 221.507 547.731 221.369 548.282 221.369C548.708 221.369 549.045 221.44 549.292 221.582C549.542 221.722 549.732 221.881 549.863 222.06C549.997 222.236 550.1 222.381 550.174 222.494H550.259V219.273H551.265V228H550.294V226.994H550.174C550.1 227.114 549.995 227.264 549.859 227.446C549.722 227.625 549.528 227.786 549.275 227.928C549.022 228.067 548.686 228.136 548.265 228.136ZM548.401 227.233C548.805 227.233 549.146 227.128 549.424 226.918C549.703 226.705 549.914 226.411 550.059 226.036C550.204 225.658 550.276 225.222 550.276 224.727C550.276 224.239 550.205 223.811 550.063 223.445C549.921 223.075 549.711 222.788 549.433 222.584C549.154 222.376 548.811 222.273 548.401 222.273C547.975 222.273 547.62 222.382 547.336 222.601C547.055 222.817 546.843 223.111 546.701 223.483C546.562 223.852 546.492 224.267 546.492 224.727C546.492 225.193 546.563 225.616 546.705 225.997C546.85 226.375 547.063 226.676 547.345 226.901C547.629 227.122 547.981 227.233 548.401 227.233ZM555.906 228.136C555.315 228.136 554.796 227.996 554.35 227.714C553.907 227.433 553.561 227.04 553.311 226.534C553.063 226.028 552.94 225.437 552.94 224.761C552.94 224.08 553.063 223.484 553.311 222.976C553.561 222.467 553.907 222.072 554.35 221.791C554.796 221.51 555.315 221.369 555.906 221.369C556.497 221.369 557.014 221.51 557.457 221.791C557.903 222.072 558.249 222.467 558.497 222.976C558.747 223.484 558.872 224.08 558.872 224.761C558.872 225.437 558.747 226.028 558.497 226.534C558.249 227.04 557.903 227.433 557.457 227.714C557.014 227.996 556.497 228.136 555.906 228.136ZM555.906 227.233C556.355 227.233 556.724 227.118 557.014 226.888C557.303 226.658 557.518 226.355 557.657 225.98C557.796 225.605 557.866 225.199 557.866 224.761C557.866 224.324 557.796 223.916 557.657 223.538C557.518 223.161 557.303 222.855 557.014 222.622C556.724 222.389 556.355 222.273 555.906 222.273C555.457 222.273 555.088 222.389 554.798 222.622C554.508 222.855 554.294 223.161 554.154 223.538C554.015 223.916 553.945 224.324 553.945 224.761C553.945 225.199 554.015 225.605 554.154 225.98C554.294 226.355 554.508 226.658 554.798 226.888C555.088 227.118 555.457 227.233 555.906 227.233ZM563.066 228.136C562.452 228.136 561.924 227.991 561.481 227.702C561.037 227.412 560.697 227.013 560.458 226.504C560.219 225.996 560.1 225.415 560.1 224.761C560.1 224.097 560.222 223.51 560.466 223.001C560.714 222.49 561.057 222.091 561.498 221.804C561.941 221.514 562.458 221.369 563.049 221.369C563.509 221.369 563.924 221.455 564.293 221.625C564.662 221.795 564.965 222.034 565.201 222.341C565.437 222.648 565.583 223.006 565.64 223.415H564.634C564.557 223.116 564.387 222.852 564.123 222.622C563.861 222.389 563.509 222.273 563.066 222.273C562.674 222.273 562.33 222.375 562.035 222.58C561.742 222.781 561.513 223.067 561.349 223.436C561.187 223.803 561.106 224.233 561.106 224.727C561.106 225.233 561.185 225.673 561.344 226.048C561.506 226.423 561.733 226.714 562.026 226.922C562.322 227.129 562.668 227.233 563.066 227.233C563.327 227.233 563.564 227.188 563.778 227.097C563.991 227.006 564.171 226.875 564.319 226.705C564.466 226.534 564.572 226.33 564.634 226.091H565.64C565.583 226.477 565.442 226.825 565.218 227.135C564.996 227.442 564.702 227.686 564.336 227.868C563.972 228.047 563.549 228.136 563.066 228.136ZM571.235 225.324V221.455H572.241V228H571.235V226.892H571.167C571.013 227.224 570.775 227.507 570.451 227.74C570.127 227.97 569.718 228.085 569.224 228.085C568.814 228.085 568.451 227.996 568.133 227.817C567.814 227.635 567.564 227.362 567.383 226.999C567.201 226.632 567.11 226.17 567.11 225.614V221.455H568.116V225.545C568.116 226.023 568.249 226.403 568.516 226.688C568.786 226.972 569.13 227.114 569.547 227.114C569.797 227.114 570.052 227.05 570.31 226.922C570.572 226.794 570.79 226.598 570.966 226.334C571.145 226.07 571.235 225.733 571.235 225.324ZM574.083 228V221.455H575.054V222.477H575.139C575.276 222.128 575.496 221.857 575.8 221.663C576.104 221.467 576.469 221.369 576.895 221.369C577.327 221.369 577.686 221.467 577.973 221.663C578.263 221.857 578.489 222.128 578.651 222.477H578.719C578.887 222.139 579.138 221.871 579.473 221.672C579.808 221.47 580.21 221.369 580.679 221.369C581.264 221.369 581.743 221.553 582.115 221.919C582.487 222.283 582.673 222.849 582.673 223.619V228H581.668V223.619C581.668 223.136 581.536 222.791 581.271 222.584C581.007 222.376 580.696 222.273 580.338 222.273C579.878 222.273 579.521 222.412 579.269 222.69C579.016 222.966 578.889 223.315 578.889 223.739V228H577.867V223.517C577.867 223.145 577.746 222.845 577.504 222.618C577.263 222.388 576.952 222.273 576.571 222.273C576.31 222.273 576.066 222.342 575.838 222.482C575.614 222.621 575.432 222.814 575.293 223.061C575.156 223.305 575.088 223.588 575.088 223.909V228H574.083ZM587.257 228.136C586.626 228.136 586.082 227.997 585.624 227.719C585.17 227.438 584.819 227.045 584.572 226.543C584.328 226.037 584.205 225.449 584.205 224.778C584.205 224.108 584.328 223.517 584.572 223.006C584.819 222.491 585.163 222.091 585.603 221.804C586.046 221.514 586.563 221.369 587.154 221.369C587.495 221.369 587.832 221.426 588.164 221.54C588.497 221.653 588.799 221.838 589.072 222.094C589.345 222.347 589.562 222.682 589.724 223.099C589.886 223.517 589.967 224.031 589.967 224.642V225.068H584.921V224.199H588.944C588.944 223.83 588.87 223.5 588.722 223.21C588.578 222.92 588.37 222.692 588.1 222.524C587.833 222.357 587.518 222.273 587.154 222.273C586.754 222.273 586.407 222.372 586.115 222.571C585.825 222.767 585.602 223.023 585.445 223.338C585.289 223.653 585.211 223.991 585.211 224.352V224.932C585.211 225.426 585.296 225.845 585.467 226.189C585.64 226.53 585.88 226.79 586.187 226.969C586.494 227.145 586.85 227.233 587.257 227.233C587.521 227.233 587.759 227.196 587.972 227.122C588.188 227.045 588.374 226.932 588.531 226.781C588.687 226.628 588.808 226.437 588.893 226.21L589.865 226.483C589.762 226.812 589.59 227.102 589.349 227.352C589.107 227.599 588.809 227.793 588.454 227.932C588.099 228.068 587.7 228.136 587.257 228.136ZM592.502 224.062V228H591.497V221.455H592.468V222.477H592.553C592.707 222.145 592.94 221.878 593.252 221.676C593.565 221.472 593.968 221.369 594.463 221.369C594.906 221.369 595.294 221.46 595.626 221.642C595.958 221.821 596.217 222.094 596.401 222.46C596.586 222.824 596.678 223.284 596.678 223.841V228H595.673V223.909C595.673 223.395 595.539 222.994 595.272 222.707C595.005 222.418 594.639 222.273 594.173 222.273C593.852 222.273 593.565 222.342 593.312 222.482C593.062 222.621 592.865 222.824 592.72 223.091C592.575 223.358 592.502 223.682 592.502 224.062ZM601.363 221.455V222.307H597.971V221.455H601.363ZM598.959 219.886H599.965V226.125C599.965 226.409 600.006 226.622 600.089 226.764C600.174 226.903 600.282 226.997 600.412 227.045C600.546 227.091 600.687 227.114 600.834 227.114C600.945 227.114 601.036 227.108 601.107 227.097C601.178 227.082 601.235 227.071 601.278 227.062L601.482 227.966C601.414 227.991 601.319 228.017 601.197 228.043C601.074 228.071 600.92 228.085 600.732 228.085C600.448 228.085 600.17 228.024 599.897 227.902C599.627 227.78 599.403 227.594 599.224 227.344C599.047 227.094 598.959 226.778 598.959 226.398V219.886ZM607.395 222.92L606.491 223.176C606.434 223.026 606.351 222.879 606.24 222.737C606.132 222.592 605.984 222.473 605.797 222.379C605.609 222.286 605.369 222.239 605.077 222.239C604.676 222.239 604.342 222.331 604.075 222.516C603.811 222.697 603.679 222.929 603.679 223.21C603.679 223.46 603.77 223.658 603.952 223.803C604.133 223.947 604.417 224.068 604.804 224.165L605.775 224.403C606.361 224.545 606.797 224.763 607.084 225.055C607.371 225.345 607.514 225.719 607.514 226.176C607.514 226.551 607.406 226.886 607.19 227.182C606.977 227.477 606.679 227.71 606.295 227.881C605.912 228.051 605.466 228.136 604.957 228.136C604.29 228.136 603.737 227.991 603.3 227.702C602.862 227.412 602.585 226.989 602.469 226.432L603.423 226.193C603.514 226.545 603.686 226.81 603.939 226.986C604.194 227.162 604.528 227.25 604.94 227.25C605.409 227.25 605.781 227.151 606.057 226.952C606.335 226.75 606.474 226.509 606.474 226.227C606.474 226 606.395 225.81 606.236 225.656C606.077 225.5 605.832 225.384 605.503 225.307L604.412 225.051C603.812 224.909 603.372 224.689 603.091 224.391C602.812 224.089 602.673 223.713 602.673 223.261C602.673 222.892 602.777 222.565 602.984 222.281C603.194 221.997 603.48 221.774 603.841 221.612C604.204 221.45 604.616 221.369 605.077 221.369C605.724 221.369 606.233 221.511 606.602 221.795C606.974 222.08 607.238 222.455 607.395 222.92ZM615.249 221.455V222.307H611.857V221.455H615.249ZM612.846 219.886H613.852V226.125C613.852 226.409 613.893 226.622 613.975 226.764C614.061 226.903 614.169 226.997 614.299 227.045C614.433 227.091 614.573 227.114 614.721 227.114C614.832 227.114 614.923 227.108 614.994 227.097C615.065 227.082 615.122 227.071 615.164 227.062L615.369 227.966C615.301 227.991 615.205 228.017 615.083 228.043C614.961 228.071 614.806 228.085 614.619 228.085C614.335 228.085 614.056 228.024 613.784 227.902C613.514 227.78 613.289 227.594 613.11 227.344C612.934 227.094 612.846 226.778 612.846 226.398V219.886ZM619.351 228.136C618.76 228.136 618.242 227.996 617.796 227.714C617.352 227.433 617.006 227.04 616.756 226.534C616.509 226.028 616.385 225.437 616.385 224.761C616.385 224.08 616.509 223.484 616.756 222.976C617.006 222.467 617.352 222.072 617.796 221.791C618.242 221.51 618.76 221.369 619.351 221.369C619.942 221.369 620.459 221.51 620.902 221.791C621.348 222.072 621.695 222.467 621.942 222.976C622.192 223.484 622.317 224.08 622.317 224.761C622.317 225.437 622.192 226.028 621.942 226.534C621.695 227.04 621.348 227.433 620.902 227.714C620.459 227.996 619.942 228.136 619.351 228.136ZM619.351 227.233C619.8 227.233 620.169 227.118 620.459 226.888C620.749 226.658 620.963 226.355 621.102 225.98C621.242 225.605 621.311 225.199 621.311 224.761C621.311 224.324 621.242 223.916 621.102 223.538C620.963 223.161 620.749 222.855 620.459 222.622C620.169 222.389 619.8 222.273 619.351 222.273C618.902 222.273 618.533 222.389 618.243 222.622C617.953 222.855 617.739 223.161 617.6 223.538C617.46 223.916 617.391 224.324 617.391 224.761C617.391 225.199 617.46 225.605 617.6 225.98C617.739 226.355 617.953 226.658 618.243 226.888C618.533 227.118 618.902 227.233 619.351 227.233ZM627.227 228V221.455H628.199V222.443H628.267C628.386 222.119 628.602 221.857 628.915 221.655C629.227 221.453 629.579 221.352 629.971 221.352C630.045 221.352 630.138 221.354 630.248 221.357C630.359 221.359 630.443 221.364 630.5 221.369V222.392C630.466 222.384 630.388 222.371 630.265 222.354C630.146 222.334 630.02 222.324 629.886 222.324C629.568 222.324 629.284 222.391 629.034 222.524C628.787 222.655 628.591 222.837 628.446 223.07C628.304 223.3 628.233 223.562 628.233 223.858V228H627.227ZM634.237 228.136C633.606 228.136 633.062 227.997 632.605 227.719C632.15 227.438 631.8 227.045 631.552 226.543C631.308 226.037 631.186 225.449 631.186 224.778C631.186 224.108 631.308 223.517 631.552 223.006C631.8 222.491 632.143 222.091 632.584 221.804C633.027 221.514 633.544 221.369 634.135 221.369C634.476 221.369 634.812 221.426 635.145 221.54C635.477 221.653 635.78 221.838 636.052 222.094C636.325 222.347 636.542 222.682 636.704 223.099C636.866 223.517 636.947 224.031 636.947 224.642V225.068H631.902V224.199H635.925C635.925 223.83 635.851 223.5 635.703 223.21C635.558 222.92 635.351 222.692 635.081 222.524C634.814 222.357 634.498 222.273 634.135 222.273C633.734 222.273 633.388 222.372 633.095 222.571C632.805 222.767 632.582 223.023 632.426 223.338C632.27 223.653 632.192 223.991 632.192 224.352V224.932C632.192 225.426 632.277 225.845 632.447 226.189C632.621 226.53 632.861 226.79 633.167 226.969C633.474 227.145 633.831 227.233 634.237 227.233C634.501 227.233 634.74 227.196 634.953 227.122C635.169 227.045 635.355 226.932 635.511 226.781C635.667 226.628 635.788 226.437 635.873 226.21L636.845 226.483C636.743 226.812 636.571 227.102 636.329 227.352C636.088 227.599 635.79 227.793 635.434 227.932C635.079 228.068 634.68 228.136 634.237 228.136ZM641.324 221.455V222.307H637.932V221.455H641.324ZM638.92 219.886H639.926V226.125C639.926 226.409 639.967 226.622 640.05 226.764C640.135 226.903 640.243 226.997 640.373 227.045C640.507 227.091 640.648 227.114 640.795 227.114C640.906 227.114 640.997 227.108 641.068 227.097C641.139 227.082 641.196 227.071 641.238 227.062L641.443 227.966C641.375 227.991 641.28 228.017 641.157 228.043C641.035 228.071 640.881 228.085 640.693 228.085C640.409 228.085 640.131 228.024 639.858 227.902C639.588 227.78 639.363 227.594 639.184 227.344C639.008 227.094 638.92 226.778 638.92 226.398V219.886ZM642.836 228V221.455H643.808V222.443H643.876C643.996 222.119 644.211 221.857 644.524 221.655C644.836 221.453 645.189 221.352 645.581 221.352C645.655 221.352 645.747 221.354 645.858 221.357C645.969 221.359 646.052 221.364 646.109 221.369V222.392C646.075 222.384 645.997 222.371 645.875 222.354C645.756 222.334 645.629 222.324 645.496 222.324C645.177 222.324 644.893 222.391 644.643 222.524C644.396 222.655 644.2 222.837 644.055 223.07C643.913 223.3 643.842 223.562 643.842 223.858V228H642.836ZM649.574 228.136C649.028 228.136 648.547 227.999 648.129 227.723C647.711 227.445 647.385 227.053 647.149 226.547C646.913 226.038 646.795 225.438 646.795 224.744C646.795 224.057 646.913 223.46 647.149 222.955C647.385 222.449 647.713 222.058 648.133 221.783C648.554 221.507 649.04 221.369 649.591 221.369C650.017 221.369 650.354 221.44 650.601 221.582C650.851 221.722 651.041 221.881 651.172 222.06C651.305 222.236 651.409 222.381 651.483 222.494H651.568V221.455H652.574V228H651.602V226.994H651.483C651.409 227.114 651.304 227.264 651.167 227.446C651.031 227.625 650.836 227.786 650.584 227.928C650.331 228.067 649.994 228.136 649.574 228.136ZM649.71 227.233C650.113 227.233 650.454 227.128 650.733 226.918C651.011 226.705 651.223 226.411 651.368 226.036C651.513 225.658 651.585 225.222 651.585 224.727C651.585 224.239 651.514 223.811 651.372 223.445C651.23 223.075 651.02 222.788 650.741 222.584C650.463 222.376 650.119 222.273 649.71 222.273C649.284 222.273 648.929 222.382 648.645 222.601C648.363 222.817 648.152 223.111 648.01 223.483C647.871 223.852 647.801 224.267 647.801 224.727C647.801 225.193 647.872 225.616 648.014 225.997C648.159 226.375 648.372 226.676 648.653 226.901C648.937 227.122 649.29 227.233 649.71 227.233ZM654.555 228V221.455H655.561V228H654.555ZM655.067 220.364C654.871 220.364 654.702 220.297 654.559 220.163C654.42 220.03 654.351 219.869 654.351 219.682C654.351 219.494 654.42 219.334 654.559 219.2C654.702 219.067 654.871 219 655.067 219C655.263 219 655.43 219.067 655.569 219.2C655.711 219.334 655.782 219.494 655.782 219.682C655.782 219.869 655.711 220.03 655.569 220.163C655.43 220.297 655.263 220.364 655.067 220.364ZM658.409 224.062V228H657.403V221.455H658.374V222.477H658.46C658.613 222.145 658.846 221.878 659.159 221.676C659.471 221.472 659.874 221.369 660.369 221.369C660.812 221.369 661.2 221.46 661.532 221.642C661.865 221.821 662.123 222.094 662.308 222.46C662.492 222.824 662.585 223.284 662.585 223.841V228H661.579V223.909C661.579 223.395 661.445 222.994 661.178 222.707C660.911 222.418 660.545 222.273 660.079 222.273C659.758 222.273 659.471 222.342 659.218 222.482C658.968 222.621 658.771 222.824 658.626 223.091C658.481 223.358 658.409 223.682 658.409 224.062ZM670.644 221.455V222.307H667.252V221.455H670.644ZM668.241 219.886H669.246V226.125C669.246 226.409 669.287 226.622 669.37 226.764C669.455 226.903 669.563 226.997 669.694 227.045C669.827 227.091 669.968 227.114 670.116 227.114C670.226 227.114 670.317 227.108 670.388 227.097C670.459 227.082 670.516 227.071 670.559 227.062L670.763 227.966C670.695 227.991 670.6 228.017 670.478 228.043C670.356 228.071 670.201 228.085 670.013 228.085C669.729 228.085 669.451 228.024 669.178 227.902C668.908 227.78 668.684 227.594 668.505 227.344C668.329 227.094 668.241 226.778 668.241 226.398V219.886ZM673.303 224.062V228H672.297V219.273H673.303V222.477H673.388C673.542 222.139 673.772 221.871 674.079 221.672C674.388 221.47 674.8 221.369 675.314 221.369C675.76 221.369 676.151 221.459 676.486 221.638C676.822 221.814 677.081 222.085 677.266 222.452C677.454 222.815 677.547 223.278 677.547 223.841V228H676.542V223.909C676.542 223.389 676.407 222.987 676.137 222.703C675.87 222.416 675.499 222.273 675.025 222.273C674.695 222.273 674.4 222.342 674.138 222.482C673.88 222.621 673.675 222.824 673.525 223.091C673.377 223.358 673.303 223.682 673.303 224.062ZM682.132 228.136C681.501 228.136 680.957 227.997 680.499 227.719C680.045 227.438 679.694 227.045 679.447 226.543C679.203 226.037 679.08 225.449 679.08 224.778C679.08 224.108 679.203 223.517 679.447 223.006C679.694 222.491 680.038 222.091 680.478 221.804C680.921 221.514 681.438 221.369 682.029 221.369C682.37 221.369 682.707 221.426 683.039 221.54C683.372 221.653 683.674 221.838 683.947 222.094C684.22 222.347 684.437 222.682 684.599 223.099C684.761 223.517 684.842 224.031 684.842 224.642V225.068H679.796V224.199H683.819C683.819 223.83 683.745 223.5 683.597 223.21C683.453 222.92 683.245 222.692 682.975 222.524C682.708 222.357 682.393 222.273 682.029 222.273C681.629 222.273 681.282 222.372 680.99 222.571C680.7 222.767 680.477 223.023 680.32 223.338C680.164 223.653 680.086 223.991 680.086 224.352V224.932C680.086 225.426 680.171 225.845 680.342 226.189C680.515 226.53 680.755 226.79 681.062 226.969C681.369 227.145 681.725 227.233 682.132 227.233C682.396 227.233 682.634 227.196 682.847 227.122C683.063 227.045 683.249 226.932 683.406 226.781C683.562 226.628 683.683 226.437 683.768 226.21L684.74 226.483C684.637 226.812 684.465 227.102 684.224 227.352C683.982 227.599 683.684 227.793 683.329 227.932C682.974 228.068 682.575 228.136 682.132 228.136ZM689.747 228V221.455H690.718V222.477H690.803C690.94 222.128 691.16 221.857 691.464 221.663C691.768 221.467 692.133 221.369 692.559 221.369C692.991 221.369 693.35 221.467 693.637 221.663C693.927 221.857 694.153 222.128 694.315 222.477H694.383C694.551 222.139 694.802 221.871 695.137 221.672C695.472 221.47 695.874 221.369 696.343 221.369C696.928 221.369 697.407 221.553 697.779 221.919C698.151 222.283 698.338 222.849 698.338 223.619V228H697.332V223.619C697.332 223.136 697.2 222.791 696.936 222.584C696.671 222.376 696.36 222.273 696.002 222.273C695.542 222.273 695.186 222.412 694.933 222.69C694.68 222.966 694.553 223.315 694.553 223.739V228H693.531V223.517C693.531 223.145 693.41 222.845 693.169 222.618C692.927 222.388 692.616 222.273 692.235 222.273C691.974 222.273 691.73 222.342 691.502 222.482C691.278 222.621 691.096 222.814 690.957 223.061C690.82 223.305 690.752 223.588 690.752 223.909V228H689.747ZM702.835 228.136C702.244 228.136 701.726 227.996 701.28 227.714C700.837 227.433 700.49 227.04 700.24 226.534C699.993 226.028 699.869 225.437 699.869 224.761C699.869 224.08 699.993 223.484 700.24 222.976C700.49 222.467 700.837 222.072 701.28 221.791C701.726 221.51 702.244 221.369 702.835 221.369C703.426 221.369 703.943 221.51 704.387 221.791C704.833 222.072 705.179 222.467 705.426 222.976C705.676 223.484 705.801 224.08 705.801 224.761C705.801 225.437 705.676 226.028 705.426 226.534C705.179 227.04 704.833 227.433 704.387 227.714C703.943 227.996 703.426 228.136 702.835 228.136ZM702.835 227.233C703.284 227.233 703.654 227.118 703.943 226.888C704.233 226.658 704.448 226.355 704.587 225.98C704.726 225.605 704.796 225.199 704.796 224.761C704.796 224.324 704.726 223.916 704.587 223.538C704.448 223.161 704.233 222.855 703.943 222.622C703.654 222.389 703.284 222.273 702.835 222.273C702.387 222.273 702.017 222.389 701.727 222.622C701.438 222.855 701.223 223.161 701.084 223.538C700.945 223.916 700.875 224.324 700.875 224.761C700.875 225.199 700.945 225.605 701.084 225.98C701.223 226.355 701.438 226.658 701.727 226.888C702.017 227.118 702.387 227.233 702.835 227.233ZM709.808 228.136C709.263 228.136 708.781 227.999 708.363 227.723C707.946 227.445 707.619 227.053 707.383 226.547C707.148 226.038 707.03 225.438 707.03 224.744C707.03 224.057 707.148 223.46 707.383 222.955C707.619 222.449 707.947 222.058 708.368 221.783C708.788 221.507 709.274 221.369 709.825 221.369C710.251 221.369 710.588 221.44 710.835 221.582C711.085 221.722 711.275 221.881 711.406 222.06C711.54 222.236 711.643 222.381 711.717 222.494H711.802V219.273H712.808V228H711.836V226.994H711.717C711.643 227.114 711.538 227.264 711.402 227.446C711.265 227.625 711.071 227.786 710.818 227.928C710.565 228.067 710.229 228.136 709.808 228.136ZM709.944 227.233C710.348 227.233 710.689 227.128 710.967 226.918C711.246 226.705 711.457 226.411 711.602 226.036C711.747 225.658 711.819 225.222 711.819 224.727C711.819 224.239 711.748 223.811 711.606 223.445C711.464 223.075 711.254 222.788 710.976 222.584C710.697 222.376 710.354 222.273 709.944 222.273C709.518 222.273 709.163 222.382 708.879 222.601C708.598 222.817 708.386 223.111 708.244 223.483C708.105 223.852 708.035 224.267 708.035 224.727C708.035 225.193 708.106 225.616 708.248 225.997C708.393 226.375 708.606 226.676 708.888 226.901C709.172 227.122 709.524 227.233 709.944 227.233ZM717.534 228.136C716.903 228.136 716.359 227.997 715.902 227.719C715.447 227.438 715.096 227.045 714.849 226.543C714.605 226.037 714.483 225.449 714.483 224.778C714.483 224.108 714.605 223.517 714.849 223.006C715.096 222.491 715.44 222.091 715.881 221.804C716.324 221.514 716.841 221.369 717.432 221.369C717.773 221.369 718.109 221.426 718.442 221.54C718.774 221.653 719.077 221.838 719.349 222.094C719.622 222.347 719.839 222.682 720.001 223.099C720.163 223.517 720.244 224.031 720.244 224.642V225.068H715.199V224.199H719.221C719.221 223.83 719.148 223.5 719 223.21C718.855 222.92 718.648 222.692 718.378 222.524C718.111 222.357 717.795 222.273 717.432 222.273C717.031 222.273 716.684 222.372 716.392 222.571C716.102 222.767 715.879 223.023 715.723 223.338C715.567 223.653 715.488 223.991 715.488 224.352V224.932C715.488 225.426 715.574 225.845 715.744 226.189C715.917 226.53 716.157 226.79 716.464 226.969C716.771 227.145 717.128 227.233 717.534 227.233C717.798 227.233 718.037 227.196 718.25 227.122C718.466 227.045 718.652 226.932 718.808 226.781C718.964 226.628 719.085 226.437 719.17 226.21L720.142 226.483C720.04 226.812 719.868 227.102 719.626 227.352C719.385 227.599 719.086 227.793 718.731 227.932C718.376 228.068 717.977 228.136 717.534 228.136ZM722.78 219.273V228H721.774V219.273H722.78Z" fill="white" fill-opacity="0.9"/>
<g filter="url(#filter2_ddddd_27322_65083)">
<path opacity="0.4" fill-rule="evenodd" clip-rule="evenodd" d="M590.895 119.897L590.878 93.0161L614.069 106.583L590.895 119.897ZM586.746 122.154H586.959C586.933 122.165 586.9 122.176 586.85 122.176C586.813 122.176 586.779 122.167 586.746 122.154ZM555.392 104.089C555.303 104.038 555.248 103.942 555.248 103.84L555.27 72.1845L582.628 88.1895L582.648 119.799L555.392 104.089ZM586.756 49.533C586.773 49.5234 586.823 49.4946 586.9 49.4946C586.952 49.4946 587 49.5075 587.045 49.5332L614.072 65.1105L586.752 81.0705L559.556 65.1603L586.756 49.533ZM594.901 85.8377L618.5 72.0513L618.481 99.6325L594.901 85.8377ZM622.488 60.4655L591.174 42.417C589.852 41.6556 588.376 41.2744 586.9 41.2744C585.429 41.2744 583.957 41.6531 582.638 42.4113L551.299 60.4159C548.656 61.9339 547.027 64.7417 547.025 67.7812L547 103.834C546.998 106.874 548.623 109.684 551.263 111.205L582.577 129.253C583.899 130.016 585.374 130.396 586.85 130.396C588.322 130.396 589.794 130.018 591.113 129.26L622.452 111.255C625.094 109.737 626.723 106.929 626.725 103.889L626.751 67.8366C626.753 64.797 625.128 61.9871 622.488 60.4655Z" fill="#E5E7EB"/>
<path fill-rule="evenodd" clip-rule="evenodd" d="M586.85 122.176C586.813 122.176 586.779 122.167 586.745 122.154H586.959C586.933 122.165 586.899 122.176 586.85 122.176ZM586.9 49.4946C586.952 49.4946 587.001 49.5075 587.045 49.5332L597.267 55.4246L626.747 72.2629L626.75 67.8366C626.752 64.7967 625.127 61.9871 622.487 60.4653L591.174 42.417C589.852 41.6553 588.376 41.2744 586.9 41.2744C585.429 41.2744 583.957 41.6531 582.637 42.4113L551.299 60.4159C548.836 61.8304 547.256 64.3649 547.05 67.1633L597.045 96.6239L611.851 105.286L614.069 106.583L601.893 113.578V113.602L594.094 118.083L590.896 119.962L590.805 119.959C589.566 120.605 588.209 120.932 586.85 120.932C585.374 120.932 583.898 120.551 582.577 119.789L570.827 113.017V112.983L547.003 99.2448L547 103.834C546.998 106.874 548.623 109.684 551.263 111.205L582.577 129.253C583.898 130.015 585.374 130.396 586.85 130.396C588.322 130.396 589.794 130.017 591.113 129.26L622.452 111.255C624.921 109.836 626.504 107.292 626.703 104.485L618.387 99.6857L612.351 96.0759L580.449 77.3835L559.555 65.1601L586.756 49.533C586.773 49.5234 586.823 49.4946 586.9 49.4946Z" fill="#E5E7EB"/>
</g>
</g>
<defs>
<filter id="filter0_ii_27322_65083" x="401.182" y="-13.2393" width="831.45" height="540.595" filterUnits="userSpaceOnUse" color-interpolation-filters="sRGB">
<feFlood flood-opacity="0" result="BackgroundImageFix"/>
<feBlend mode="normal" in="SourceGraphic" in2="BackgroundImageFix" result="shape"/>
<feColorMatrix in="SourceAlpha" type="matrix" values="0 0 0 0 0 0 0 0 0 0 0 0 0 0 0 0 0 0 127 0" result="hardAlpha"/>
<feOffset dx="-18.3516" dy="32.1153"/>
<feGaussianBlur stdDeviation="38.9971"/>
<feComposite in2="hardAlpha" operator="arithmetic" k2="-1" k3="1"/>
<feColorMatrix type="matrix" values="0 0 0 0 1 0 0 0 0 1 0 0 0 0 1 0 0 0 0.87 0"/>
<feBlend mode="lighten" in2="shape" result="effect1_innerShadow_27322_65083"/>
<feColorMatrix in="SourceAlpha" type="matrix" values="0 0 0 0 0 0 0 0 0 0 0 0 0 0 0 0 0 0 127 0" result="hardAlpha"/>
<feOffset dx="26.3494" dy="15.3705"/>
<feGaussianBlur stdDeviation="15.3705"/>
<feComposite in2="hardAlpha" operator="arithmetic" k2="-1" k3="1"/>
<feColorMatrix type="matrix" values="0 0 0 0 0.168627 0 0 0 0 0.180392 0 0 0 0 0.239216 0 0 0 0.9 0"/>
<feBlend mode="multiply" in2="effect1_innerShadow_27322_65083" result="effect2_innerShadow_27322_65083"/>
</filter>
<filter id="filter1_ii_27322_65083" x="401.182" y="-13.2393" width="831.634" height="540.595" filterUnits="userSpaceOnUse" color-interpolation-filters="sRGB">
<feFlood flood-opacity="0" result="BackgroundImageFix"/>
<feBlend mode="normal" in="SourceGraphic" in2="BackgroundImageFix" result="shape"/>
<feColorMatrix in="SourceAlpha" type="matrix" values="0 0 0 0 0 0 0 0 0 0 0 0 0 0 0 0 0 0 127 0" result="hardAlpha"/>
<feOffset dx="-18.3516" dy="32.1153"/>
<feGaussianBlur stdDeviation="38.9971"/>
<feComposite in2="hardAlpha" operator="arithmetic" k2="-1" k3="1"/>
<feColorMatrix type="matrix" values="0 0 0 0 1 0 0 0 0 1 0 0 0 0 1 0 0 0 0.87 0"/>
<feBlend mode="lighten" in2="shape" result="effect1_innerShadow_27322_65083"/>
<feColorMatrix in="SourceAlpha" type="matrix" values="0 0 0 0 0 0 0 0 0 0 0 0 0 0 0 0 0 0 127 0" result="hardAlpha"/>
<feOffset dx="26.3494" dy="15.3705"/>
<feGaussianBlur stdDeviation="15.3705"/>
<feComposite in2="hardAlpha" operator="arithmetic" k2="-1" k3="1"/>
<feColorMatrix type="matrix" values="0 0 0 0 0.168627 0 0 0 0 0.180392 0 0 0 0 0.239216 0 0 0 0.9 0"/>
<feBlend mode="multiply" in2="effect1_innerShadow_27322_65083" result="effect2_innerShadow_27322_65083"/>
</filter>
<filter id="filter2_ddddd_27322_65083" x="544" y="38" width="127" height="135.6" filterUnits="userSpaceOnUse" color-interpolation-filters="sRGB">
<feFlood flood-opacity="0" result="BackgroundImageFix"/>
<feColorMatrix in="SourceAlpha" type="matrix" values="0 0 0 0 0 0 0 0 0 0 0 0 0 0 0 0 0 0 127 0" result="hardAlpha"/>
<feOffset dx="1" dy="1"/>
<feGaussianBlur stdDeviation="2"/>
<feColorMatrix type="matrix" values="0 0 0 0 0.113725 0 0 0 0 0.168627 0 0 0 0 0.227451 0 0 0 0.29 0"/>
<feBlend mode="normal" in2="BackgroundImageFix" result="effect1_dropShadow_27322_65083"/>
<feColorMatrix in="SourceAlpha" type="matrix" values="0 0 0 0 0 0 0 0 0 0 0 0 0 0 0 0 0 0 127 0" result="hardAlpha"/>
<feOffset dx="5" dy="5"/>
<feGaussianBlur stdDeviation="3.5"/>
<feColorMatrix type="matrix" values="0 0 0 0 0.113725 0 0 0 0 0.168627 0 0 0 0 0.227451 0 0 0 0.26 0"/>
<feBlend mode="normal" in2="effect1_dropShadow_27322_65083" result="effect2_dropShadow_27322_65083"/>
<feColorMatrix in="SourceAlpha" type="matrix" values="0 0 0 0 0 0 0 0 0 0 0 0 0 0 0 0 0 0 127 0" result="hardAlpha"/>
<feOffset dx="11" dy="11"/>
<feGaussianBlur stdDeviation="5"/>
<feColorMatrix type="matrix" values="0 0 0 0 0.113725 0 0 0 0 0.168627 0 0 0 0 0.227451 0 0 0 0.15 0"/>
<feBlend mode="normal" in2="effect2_dropShadow_27322_65083" result="effect3_dropShadow_27322_65083"/>
<feColorMatrix in="SourceAlpha" type="matrix" values="0 0 0 0 0 0 0 0 0 0 0 0 0 0 0 0 0 0 127 0" result="hardAlpha"/>
<feOffset dx="20" dy="20"/>
<feGaussianBlur stdDeviation="5.5"/>
<feColorMatrix type="matrix" values="0 0 0 0 0.113725 0 0 0 0 0.168627 0 0 0 0 0.227451 0 0 0 0.04 0"/>
<feBlend mode="normal" in2="effect3_dropShadow_27322_65083" result="effect4_dropShadow_27322_65083"/>
<feColorMatrix in="SourceAlpha" type="matrix" values="0 0 0 0 0 0 0 0 0 0 0 0 0 0 0 0 0 0 127 0" result="hardAlpha"/>
<feOffset dx="32" dy="31"/>
<feGaussianBlur stdDeviation="6"/>
<feColorMatrix type="matrix" values="0 0 0 0 0.113725 0 0 0 0 0.168627 0 0 0 0 0.227451 0 0 0 0.01 0"/>
<feBlend mode="normal" in2="effect4_dropShadow_27322_65083" result="effect5_dropShadow_27322_65083"/>
<feBlend mode="normal" in="SourceGraphic" in2="effect5_dropShadow_27322_65083" result="shape"/>
</filter>
<linearGradient id="paint0_linear_27322_65083" x1="1162.6" y1="-70.19" x2="792.792" y2="69.0564" gradientUnits="userSpaceOnUse">
<stop offset="0.416991" stop-opacity="0"/>
<stop offset="1"/>
</linearGradient>
<radialGradient id="paint1_radial_27322_65083" cx="0" cy="0" r="1" gradientUnits="userSpaceOnUse" gradientTransform="translate(355.322 322.927) rotate(-1.71521) scale(297.924 501.205)">
<stop stop-color="#949494"/>
<stop offset="0.635171" stop-color="#181818"/>
<stop offset="1" stop-color="#1D1D1D"/>
</radialGradient>
<linearGradient id="paint2_linear_27322_65083" x1="365.053" y1="323.729" x2="1082.5" y2="53.5192" gradientUnits="userSpaceOnUse">
<stop offset="0.137931" stop-opacity="0"/>
<stop offset="1"/>
</linearGradient>
<radialGradient id="paint3_radial_27322_65083" cx="0" cy="0" r="1" gradientUnits="userSpaceOnUse" gradientTransform="translate(355.307 322.927) rotate(-1.71481) scale(297.994 501.205)">
<stop stop-color="#949494"/>
<stop offset="0.635171" stop-color="#181818"/>
<stop offset="1" stop-color="#1D1D1D"/>
</radialGradient>
<linearGradient id="paint4_linear_27322_65083" x1="948" y1="167" x2="948" y2="231" gradientUnits="userSpaceOnUse">
<stop stop-color="white"/>
<stop offset="1" stop-color="white" stop-opacity="0"/>
</linearGradient>
<linearGradient id="paint5_linear_27322_65083" x1="916" y1="199" x2="980" y2="199" gradientUnits="userSpaceOnUse">
<stop stop-color="white"/>
<stop offset="1" stop-color="white" stop-opacity="0"/>
</linearGradient>
<linearGradient id="paint6_linear_27322_65083" x1="925.373" y1="176.372" x2="970.627" y2="221.627" gradientUnits="userSpaceOnUse">
<stop stop-color="white"/>
<stop offset="1" stop-color="white" stop-opacity="0"/>
</linearGradient>
<linearGradient id="paint7_linear_27322_65083" x1="970.628" y1="176.372" x2="925.373" y2="221.627" gradientUnits="userSpaceOnUse">
<stop stop-color="white"/>
<stop offset="1" stop-color="white" stop-opacity="0"/>
</linearGradient>
<clipPath id="clip0_27322_65083">
<rect width="1172" height="272" rx="16" fill="white"/>
</clipPath>
</defs>
</svg>
