<svg width="33" height="33" viewBox="0 0 33 33" fill="none" xmlns="http://www.w3.org/2000/svg">
<g id="Logo">
<path id="Back" opacity="0.4" fill-rule="evenodd" clip-rule="evenodd" d="M17.6121 28.7866L17.6054 18.9786L26.9102 23.9287L17.6121 28.7866ZM15.9473 29.6102H16.0329C16.0225 29.6142 16.009 29.6182 15.9892 29.6182C15.9744 29.6182 15.9606 29.615 15.9473 29.6102ZM3.36698 23.0189C3.33135 23.0001 3.30918 22.9652 3.30918 22.9278L3.31801 11.3778L14.2952 17.2175L14.303 28.7508L3.36698 23.0189ZM15.9514 3.1129C15.9581 3.1094 15.9783 3.0989 16.0093 3.0989C16.0301 3.0989 16.0495 3.1036 16.0673 3.113L26.9113 8.79666L15.9496 14.62L5.03761 8.81486L15.9514 3.1129ZM19.2194 16.3594L28.6882 11.3292L28.6804 21.3927L19.2194 16.3594ZM30.2881 7.10186L17.7239 0.516511C17.1937 0.238677 16.6015 0.0996094 16.0093 0.0996094C15.4188 0.0996094 14.8283 0.237777 14.299 0.514412L1.72473 7.08377C0.664478 7.63764 0.0109211 8.66209 0.0100387 9.77113L8.94592e-07 22.9257C-0.000881546 24.0349 0.651132 25.0601 1.71039 25.6153L14.2746 32.2005C14.8049 32.4786 15.397 32.6175 15.9892 32.6175C16.5797 32.6175 17.1702 32.4793 17.6995 32.2028L30.2738 25.6333C31.3339 25.0794 31.9876 24.0551 31.9885 22.9459L31.9986 9.79133C31.9994 8.68229 31.3474 7.65703 30.2881 7.10186Z" fill="#1C1C1C"/>
<path id="Front" fill-rule="evenodd" clip-rule="evenodd" d="M15.9892 29.6182C15.9745 29.6182 15.9607 29.615 15.9473 29.6102H16.0329C16.0226 29.6142 16.009 29.6182 15.9892 29.6182ZM16.0095 3.0989C16.0301 3.0989 16.0496 3.1036 16.0674 3.113L20.1687 5.26259L31.9973 11.4063L31.9986 9.79133C31.9994 8.68219 31.3474 7.65703 30.2881 7.10176L17.724 0.516511C17.1937 0.238577 16.6015 0.0996094 16.0095 0.0996094C15.4189 0.0996094 14.8284 0.237777 14.299 0.514412L1.72473 7.08377C0.736838 7.59984 0.102695 8.52463 0.0199659 9.54569L20.0798 20.295L26.0205 23.4553L26.9102 23.9287L22.0248 26.4811V26.4898L18.8957 28.1246L17.6126 28.8104L17.5759 28.8093C17.0789 29.045 16.5343 29.1643 15.9892 29.1643C15.397 29.1643 14.8049 29.0252 14.2746 28.7473L9.56036 26.2764V26.2638L0.00132435 21.2512L6.85031e-07 22.9257C-0.00077145 24.0348 0.651241 25.06 1.7105 25.6153L14.2746 32.2005C14.8049 32.4785 15.397 32.6175 15.9892 32.6175C16.5797 32.6175 17.1703 32.4792 17.6995 32.2028L30.2738 25.6333C31.2644 25.1158 31.8997 24.1875 31.9795 23.1633L28.6431 21.4121L26.2213 20.095L13.421 13.2747L5.03763 8.81476L15.9515 3.1129C15.9582 3.1094 15.9783 3.0989 16.0095 3.0989Z" fill="#1C1C1C"/>
</g>
</svg>
