<svg width="23" height="25" viewBox="0 0 23 25" fill="none" xmlns="http://www.w3.org/2000/svg">
<g id="Logo">
<path id="Back" opacity="0.4" fill-rule="evenodd" clip-rule="evenodd" d="M12.193 22.0135L12.1883 14.5133L18.6302 18.2987L12.193 22.0135ZM11.0404 22.6433H11.0997C11.0925 22.6464 11.0832 22.6494 11.0694 22.6494C11.0592 22.6494 11.0496 22.647 11.0404 22.6433ZM2.33099 17.6029C2.30632 17.5886 2.29097 17.5619 2.29097 17.5333L2.29708 8.70088L9.8967 13.1666L9.90204 21.9861L2.33099 17.6029ZM11.0433 2.3807C11.0479 2.37802 11.0619 2.36999 11.0834 2.36999C11.0977 2.36999 11.1112 2.37359 11.1235 2.38077L18.6309 6.7271L11.0421 11.1802L3.48757 6.74102L11.0433 2.3807ZM13.3057 12.5104L19.861 8.66372L19.8557 16.3594L13.3057 12.5104ZM20.9687 5.43108L12.2704 0.395223C11.9033 0.182762 11.4933 0.076416 11.0834 0.076416C10.6745 0.076416 10.2657 0.182074 9.89927 0.393618L1.19404 5.41724C0.460023 5.84079 0.00756076 6.6242 0.00694984 7.47229L6.19333e-07 17.5317C-0.000610301 18.3799 0.450783 19.1639 1.18412 19.5884L9.8824 24.6241C10.2496 24.8368 10.6595 24.943 11.0694 24.943C11.4783 24.943 11.8871 24.8373 12.2535 24.6259L20.9588 19.6022C21.6927 19.1786 22.1452 18.3953 22.1459 17.5471L22.1529 7.48773C22.1534 6.63964 21.702 5.85562 20.9687 5.43108Z" fill="#0659FD"/>
<path id="Front" fill-rule="evenodd" clip-rule="evenodd" d="M11.0694 22.6494C11.0593 22.6494 11.0497 22.647 11.0404 22.6433H11.0997C11.0926 22.6464 11.0832 22.6494 11.0694 22.6494ZM11.0835 2.36999C11.0977 2.36999 11.1113 2.37359 11.1236 2.38077L13.963 4.02458L22.152 8.72275L22.1529 7.48773C22.1534 6.63957 21.702 5.85562 20.9687 5.431L12.2705 0.395223C11.9033 0.182685 11.4933 0.076416 11.0835 0.076416C10.6746 0.076416 10.2658 0.182074 9.89927 0.393618L1.19404 5.41724C0.510119 5.81189 0.0710963 6.51908 0.0138225 7.29989L13.9014 15.5199L18.0142 17.9367L18.6302 18.2987L15.248 20.2505V20.2571L13.0816 21.5073L12.1934 22.0317L12.1679 22.0308C11.8238 22.2111 11.4468 22.3023 11.0694 22.3023C10.6595 22.3023 10.2496 22.196 9.8824 21.9834L6.61871 20.094V20.0843L0.000916854 16.2512L4.74252e-07 17.5317C-0.000534081 18.3798 0.45086 19.1638 1.18419 19.5884L9.8824 24.6241C10.2496 24.8367 10.6595 24.943 11.0694 24.943C11.4783 24.943 11.8871 24.8373 12.2535 24.6259L20.9588 19.6022C21.6446 19.2065 22.0844 18.4966 22.1397 17.7133L19.8299 16.3742L18.1532 15.367L9.29148 10.1515L3.48759 6.74094L11.0434 2.3807C11.048 2.37802 11.0619 2.36999 11.0835 2.36999Z" fill="#0659FD"/>
</g>
</svg>
